<?xml version="1.0" encoding="UTF-8" standalone="no"?>
<svg
   xmlns:dc="http://purl.org/dc/elements/1.1/"
   xmlns:cc="http://creativecommons.org/ns#"
   xmlns:rdf="http://www.w3.org/1999/02/22-rdf-syntax-ns#"
   xmlns:svg="http://www.w3.org/2000/svg"
   xmlns="http://www.w3.org/2000/svg"
   xmlns:xlink="http://www.w3.org/1999/xlink"
   version="1.1"
   id="svg5759"
   height="840"
   width="940">
  <metadata
     id="metadata6360">
    <rdf:RDF>
      <cc:Work
         rdf:about="">
        <dc:format>image/svg+xml</dc:format>
        <dc:type
           rdf:resource="http://purl.org/dc/dcmitype/StillImage" />
        <dc:title></dc:title>
      </cc:Work>
    </rdf:RDF>
  </metadata>
  <defs
     id="defs6358" />
  <g
     id="g5761"
     transform="translate(-240 -620)">
    <path
       id="path5763"
       fill="#fff"
       stroke-width="2"
       stroke="#000"
       d="M620 640h220v60H620z" />
    <use
       id="use5765"
       transform="matrix(1,0,0,1,625,645) translate(39.599999999999994 28.6)"
       xlink:href="#a" />
    <use
       id="use5767"
       transform="matrix(1,0,0,1,625,645) translate(100.5 28.6)"
       xlink:href="#b" />
    <path
       id="path5769"
       fill="#fff"
       stroke-width="2"
       stroke="#000"
       d="M620 780h220v60H620z" />
    <use
       id="use5771"
       transform="matrix(1,0,0,1,625,785) translate(40.05 28.6)"
       xlink:href="#c" />
    <use
       id="use5773"
       transform="matrix(1,0,0,1,625,785) translate(100.05 28.6)"
       xlink:href="#b" />
    <path
       id="path5775"
       fill="#fff"
       stroke-width="2"
       stroke="#000"
       d="M620 920h220v60H620z" />
    <use
       id="use5777"
       transform="matrix(1,0,0,1,625,925) translate(25.099999999999994 28.6)"
       xlink:href="#d" />
    <use
       id="use5779"
       transform="matrix(1,0,0,1,625,925) translate(48.05 28.6)"
       xlink:href="#e" />
    <path
       id="path5781"
       fill="#fff"
       stroke-width="2"
       stroke="#000"
       d="M620 1200h220v60H620z" />
    <use
       id="use5783"
       transform="matrix(1,0,0,1,625,1205) translate(25.099999999999994 28.6)"
       xlink:href="#d" />
    <use
       id="use5785"
       transform="matrix(1,0,0,1,625,1205) translate(48.05 28.6)"
       xlink:href="#f" />
    <path
       id="path5787"
       fill="#fff"
       stroke-width="2"
       stroke="#000"
       d="M620 1060h220v60H620z" />
    <use
       id="use5789"
       transform="matrix(1,0,0,1,625,1065) translate(49.574999999999996 28.6)"
       xlink:href="#g" />
    <use
       id="use5791"
       transform="matrix(1,0,0,1,625,1065) translate(93.525 28.6)"
       xlink:href="#h" />
    <path
       id="path5793"
       fill="#fff"
       stroke-width="2"
       stroke="#000"
       d="M620 1340h220v60H620z" />
    <use
       id="use5795"
       transform="matrix(1,0,0,1,625,1345) translate(7.150000000000006 28.6)"
       xlink:href="#i" />
    <path
       id="path5797"
       fill="#fff"
       d="M980 1260h140v40H980z" />
    <path
       id="path5799"
       fill="none"
       stroke-width="2"
       stroke="#000"
       d="M991.67 1260h7.77m7.78 0h7.78m7.78 0h7.78m7.77 0h7.78m7.8 0h7.77m7.77 0h7.78m7.78 0h7.78m7.78 0h7.77m7.78 0h3.9v3.33m0 6.67v6.67m0 6.66v6.67m0 6.67v3.33h-3.9m-7.77 0h-7.77m-7.78 0H1085m-7.78 0h-7.78m-7.77 0h-7.78m-7.8 0h-7.77m-7.77 0h-7.78m-7.78 0h-7.78m-7.78 0h-7.77m-7.78 0H980v-3.33m0-6.67v-6.67m0-6.66V1270m0-6.67V1260h3.9" />
    <use
       id="use5801"
       transform="matrix(1,0,0,1,985,1265) translate(4.074999999999996 18.6)"
       xlink:href="#j" />
    <path
       id="path5803"
       fill="#fff"
       stroke-width="2"
       stroke="#000"
       d="M1020 1400h60v40h-60z" />
    <use
       id="use5805"
       transform="matrix(1,0,0,1,1025,1405) translate(18.525 18.6)"
       xlink:href="#k" />
    <path
       id="path5807"
       fill="#fff"
       stroke-width="2"
       stroke="#000"
       d="M1100 1400h60v40h-60z" />
    <use
       id="use5809"
       transform="matrix(1,0,0,1,1105,1405) translate(6 18.6)"
       xlink:href="#l" />
    <path
       id="path5811"
       fill="#fff"
       stroke-width="2"
       stroke="#000"
       d="M940 1400h60v40h-60z" />
    <use
       id="use5813"
       transform="matrix(1,0,0,1,945,1405) translate(16.025 18.6)"
       xlink:href="#m" />
    <path
       id="path5815"
       fill="none"
       d="M1050 1400v-99" />
    <path
       id="path5817"
       fill="none"
       stroke-width="2"
       stroke="#000"
       d="M1050 1400v-4.13m0-8.24v-8.26m0-8.24v-8.26m0-8.24v-8.26m0-8.24v-8.26m0-8.24v-8.26m0-8.24V1301" />
    <path
       id="path5819"
       fill="#fff"
       d="M1054.64 1315.27h-9.28L1050 1301z" />
    <path
       id="path5821"
       d="M1056 1316.27h-12l5.27-16.27h1.46zm-9.26-2h6.52l-3.26-10.03z" />
    <path
       id="path5823"
       fill="none"
       d="M1130 1400v-50h-80v-50" />
    <path
       id="path5825"
       fill="none"
       stroke-width="2"
       stroke="#000"
       d="M1130 1400v-4.1m0-8.17v-8.18m0-8.2v-8.17m0-8.18v-5h-3.18m-8.18 0h-8.2m-8.17 0h-8.18m-8.2 0h-8.17m-8.18 0h-8.2m-8.17 0H1050v-5m0-8.18v-8.18m0-8.2v-8.17m0-8.18v-4.1" />
    <path
       id="path5827"
       fill="#fff"
       d="M1054.64 1314.27h-9.28L1050 1300z" />
    <path
       id="path5829"
       d="M1056 1315.27h-12l4.95-15.27h2.1zm-9.26-2h6.52l-3.26-10.03z" />
    <path
       id="path5831"
       fill="none"
       d="M970 1400v-50h80v-50" />
    <path
       id="path5833"
       fill="none"
       stroke-width="2"
       stroke="#000"
       d="M970 1400v-4.1m0-8.17v-8.18m0-8.2v-8.17m0-8.18v-5h3.18m8.18 0h8.2m8.17 0h8.18m8.2 0h8.17m8.18 0h8.2m8.17 0h3.18v-5m0-8.18v-8.18m0-8.2v-8.17m0-8.18v-4.1" />
    <path
       id="path5835"
       fill="#fff"
       d="M1054.64 1314.27h-9.28L1050 1300z" />
    <path
       id="path5837"
       d="M1056 1315.27h-12l4.95-15.27h2.1zm-9.26-2h6.52l-3.26-10.03z" />
    <path
       id="path5839"
       fill="#fff"
       stroke-width="2"
       stroke="#000"
       d="M260 1030h160v120H260z" />
    <use
       id="use5841"
       transform="matrix(1,0,0,1,265,1035) translate(21.099999999999994 58.6)"
       xlink:href="#n" />
    <use
       id="use5843"
       transform="matrix(1,0,0,1,265,1035) translate(86 58.6)"
       xlink:href="#o" />
    <path
       id="path5845"
       fill="none"
       d="M450 790v600h80V790z" />
    <path
       id="path5847"
       fill="none"
       stroke-width="2"
       stroke="#000"
       d="M530 1390c-20.7 0-37.5-16.8-37.5-37.5v-225c0-20.7-16.8-37.5-37.5-37.5 20.7 0 37.5-16.8 37.5-37.5v-225c0-20.7 16.8-37.5 37.5-37.5" />
    <path
       id="path5849"
       fill="none"
       d="M880 920v200h120V920z" />
    <path
       id="path5851"
       fill="none"
       stroke-width="2"
       stroke="#000"
       d="M880 1120c6.9 0 12.5-5.6 12.5-12.5v-75c0-6.9 5.6-12.5 12.5-12.5-6.9 0-12.5-5.6-12.5-12.5v-75c0-6.9-5.6-12.5-12.5-12.5" />
    <use
       id="use5853"
       transform="matrix(1,0,0,1,922.5,925) translate(-0.9500000000000028 87.80000000000001)"
       xlink:href="#p" />
    <use
       id="use5855"
       transform="matrix(1,0,0,1,922.5,925) translate(3.049999999999997 109.4)"
       xlink:href="#q" />
    <path
       id="path5857"
       fill="none"
       d="M820 1280v160h80v-160z" />
    <path
       id="path5859"
       fill="none"
       stroke-width="2"
       stroke="#000"
       d="M900 1440c-5.52 0-10-4.48-10-10v-60c0-5.52-4.48-10-10-10 5.52 0 10-4.48 10-10v-60c0-5.52 4.48-10 10-10M730 700v79" />
    <path
       id="path5861"
       d="M730 779l-4.64-14.27h9.28z" />
    <path
       id="path5863"
       d="M730.73 780h-1.46L724 763.73h12zm-4-14.27l3.27 10.03 3.26-10.03z" />
    <path
       id="path5865"
       d="M678.05 728.7h103.9v21.6h-103.9z"
       fill="#fff" />
    <use
       id="use5867"
       transform="matrix(1,0,0,1,678.05,728.7) translate(0 14.4)"
       xlink:href="#r" />
    <use
       id="use5869"
       transform="matrix(1,0,0,1,678.05,728.7) translate(49 14.4)"
       xlink:href="#s" />
    <path
       id="path5871"
       fill="none"
       stroke-width="2"
       stroke="#000"
       d="M730 840v80" />
    <path
       id="path5873"
       d="M730 920l-4.64-14.27h9.28z" />
    <path
       id="path5875"
       d="M731.05 920h-2.1L724 904.73h12zm-4.3-13.27l3.25 10.03 3.26-10.03z" />
    <path
       id="path5877"
       d="M686.02 869.2h87.95v21.6h-87.95z"
       fill="#fff" />
    <use
       id="use5879"
       transform="matrix(1,0,0,1,686.025,869.2) translate(0 14.4)"
       xlink:href="#t" />
    <use
       id="use5881"
       transform="matrix(1,0,0,1,686.025,869.2) translate(57 14.4)"
       xlink:href="#u" />
    <path
       id="path5883"
       fill="none"
       stroke-width="2"
       stroke="#000"
       d="M730 980v79" />
    <path
       id="path5885"
       d="M730 1059l-4.64-14.27h9.28z" />
    <path
       id="path5887"
       d="M730.73 1060h-1.46l-5.28-16.27h12zm-4-14.27l3.27 10.03 3.26-10.03z" />
    <path
       id="path5889"
       d="M651.55 1004.53h156.9v21.6h-156.9z"
       fill="#fff" />
    <use
       id="use5891"
       transform="matrix(1,0,0,1,651.55,1004.5333333333334) translate(0 14.4)"
       xlink:href="#v" />
    <use
       id="use5893"
       transform="matrix(1,0,0,1,651.55,1004.5333333333334) translate(68.95 14.4)"
       xlink:href="#w" />
    <use
       id="use5895"
       transform="matrix(1,0,0,1,651.55,1004.5333333333334) translate(125.95 14.4)"
       xlink:href="#u" />
    <path
       id="path5897"
       fill="none"
       stroke-width="2"
       stroke="#000"
       d="M730 1120v80" />
    <path
       id="path5899"
       d="M730 1200l-4.64-14.27h9.28z" />
    <path
       id="path5901"
       d="M731.05 1200h-2.1l-4.96-15.27h12zm-4.3-13.27l3.25 10.03 3.26-10.03z" />
    <path
       id="path5903"
       d="M651.55 1149.2h156.9v21.6h-156.9z"
       fill="#fff" />
    <g
       id="g5905">
      <use
         id="use5907"
         transform="matrix(1,0,0,1,651.55,1149.2) translate(0 14.4)"
         xlink:href="#v" />
      <use
         id="use5909"
         transform="matrix(1,0,0,1,651.55,1149.2) translate(68.95 14.4)"
         xlink:href="#w" />
      <use
         id="use5911"
         transform="matrix(1,0,0,1,651.55,1149.2) translate(125.95 14.4)"
         xlink:href="#u" />
    </g>
    <path
       id="path5913"
       fill="none"
       stroke-width="2"
       stroke="#000"
       d="M730 1260v79" />
    <path
       id="path5915"
       d="M730 1339l-4.64-14.27h9.28z" />
    <path
       id="path5917"
       d="M730.73 1340h-1.46l-5.28-16.27h12zm-4-14.27l3.27 10.03 3.26-10.03z" />
    <path
       id="path5919"
       d="M653.05 1288.7h153.9v21.6h-153.9z"
       fill="#fff" />
    <g
       id="g5921">
      <use
         id="use5923"
         transform="matrix(1,0,0,1,653.05,1288.7) translate(0 14.4)"
         xlink:href="#x" />
      <use
         id="use5925"
         transform="matrix(1,0,0,1,653.05,1288.7) translate(45.95 14.4)"
         xlink:href="#y" />
      <use
         id="use5927"
         transform="matrix(1,0,0,1,653.05,1288.7) translate(114.9 14.4)"
         xlink:href="#z" />
    </g>
    <defs
       id="defs5929">
      <path
         id="A"
         d="M30 0v-248h33v221h125V0H30" />
      <path
         id="B"
         d="M100-194c63 0 86 42 84 106H49c0 40 14 67 53 68 26 1 43-12 49-29l28 8c-11 28-37 45-77 45C44 4 14-33 15-96c1-61 26-98 85-98zm52 81c6-60-76-77-97-28-3 7-6 17-6 28h103" />
      <path
         id="C"
         d="M141 0L90-78 38 0H4l68-98-65-92h35l48 74 47-74h35l-64 92 68 98h-35" />
      <path
         id="D"
         d="M24-231v-30h32v30H24zM24 0v-190h32V0H24" />
      <path
         id="E"
         d="M96-169c-40 0-48 33-48 73s9 75 48 75c24 0 41-14 43-38l32 2c-6 37-31 61-74 61-59 0-76-41-82-99-10-93 101-131 147-64 4 7 5 14 7 22l-32 3c-4-21-16-35-41-35" />
      <path
         id="F"
         d="M141-36C126-15 110 5 73 4 37 3 15-17 15-53c-1-64 63-63 125-63 3-35-9-54-41-54-24 1-41 7-42 31l-33-3c5-37 33-52 76-52 45 0 72 20 72 64v82c-1 20 7 32 28 27v20c-31 9-61-2-59-35zM48-53c0 20 12 33 32 33 41-3 63-29 60-74-43 2-92-5-92 41" />
      <path
         id="G"
         d="M24 0v-261h32V0H24" />
      <g
         id="a">
        <use
           id="use5939"
           xlink:href="#A"
           transform="matrix(0.05,0,0,0.05,0,0)" />
        <use
           id="use5941"
           xlink:href="#B"
           transform="matrix(0.05,0,0,0.05,10,0)" />
        <use
           id="use5943"
           xlink:href="#C"
           transform="matrix(0.05,0,0,0.05,20,0)" />
        <use
           id="use5945"
           xlink:href="#D"
           transform="matrix(0.05,0,0,0.05,29,0)" />
        <use
           id="use5947"
           xlink:href="#E"
           transform="matrix(0.05,0,0,0.05,32.95,0)" />
        <use
           id="use5949"
           xlink:href="#F"
           transform="matrix(0.05,0,0,0.05,41.95,0)" />
        <use
           id="use5951"
           xlink:href="#G"
           transform="matrix(0.05,0,0,0.05,51.95,0)" />
      </g>
      <path
         id="H"
         d="M205 0l-28-72H64L36 0H1l101-248h38L239 0h-34zm-38-99l-47-123c-12 45-31 82-46 123h93" />
      <path
         id="I"
         d="M117-194c89-4 53 116 60 194h-32v-121c0-31-8-49-39-48C34-167 62-67 57 0H25l-1-190h30c1 10-1 24 2 32 11-22 29-35 61-36" />
      <path
         id="J"
         d="M179-190L93 31C79 59 56 82 12 73V49c39 6 53-20 64-50L1-190h34L92-34l54-156h33" />
      <path
         id="K"
         d="M9 0v-24l116-142H16v-24h144v24L44-24h123V0H9" />
      <path
         id="L"
         d="M114-163C36-179 61-72 57 0H25l-1-190h30c1 12-1 29 2 39 6-27 23-49 58-41v29" />
      <g
         id="b">
        <use
           id="use5959"
           xlink:href="#H"
           transform="matrix(0.05,0,0,0.05,0,0)" />
        <use
           id="use5961"
           xlink:href="#I"
           transform="matrix(0.05,0,0,0.05,12,0)" />
        <use
           id="use5963"
           xlink:href="#F"
           transform="matrix(0.05,0,0,0.05,22,0)" />
        <use
           id="use5965"
           xlink:href="#G"
           transform="matrix(0.05,0,0,0.05,32,0)" />
        <use
           id="use5967"
           xlink:href="#J"
           transform="matrix(0.05,0,0,0.05,35.95,0)" />
        <use
           id="use5969"
           xlink:href="#K"
           transform="matrix(0.05,0,0,0.05,44.95,0)" />
        <use
           id="use5971"
           xlink:href="#B"
           transform="matrix(0.05,0,0,0.05,53.95,0)" />
        <use
           id="use5973"
           xlink:href="#L"
           transform="matrix(0.05,0,0,0.05,63.95,0)" />
      </g>
      <path
         id="M"
         d="M185-189c-5-48-123-54-124 2 14 75 158 14 163 119 3 78-121 87-175 55-17-10-28-26-33-46l33-7c5 56 141 63 141-1 0-78-155-14-162-118-5-82 145-84 179-34 5 7 8 16 11 25" />
      <path
         id="N"
         d="M59-47c-2 24 18 29 38 22v24C64 9 27 4 27-40v-127H5v-23h24l9-43h21v43h35v23H59v120" />
      <g
         id="c">
        <use
           id="use5978"
           xlink:href="#M"
           transform="matrix(0.05,0,0,0.05,0,0)" />
        <use
           id="use5980"
           xlink:href="#J"
           transform="matrix(0.05,0,0,0.05,12,0)" />
        <use
           id="use5982"
           xlink:href="#I"
           transform="matrix(0.05,0,0,0.05,21,0)" />
        <use
           id="use5984"
           xlink:href="#N"
           transform="matrix(0.05,0,0,0.05,31,0)" />
        <use
           id="use5986"
           xlink:href="#F"
           transform="matrix(0.05,0,0,0.05,36,0)" />
        <use
           id="use5988"
           xlink:href="#C"
           transform="matrix(0.05,0,0,0.05,46,0)" />
      </g>
      <path
         id="O"
         d="M33 0v-248h34V0H33" />
      <path
         id="P"
         d="M233-177c-1 41-23 64-60 70L243 0h-38l-65-103H63V0H30v-248c88 3 205-21 203 71zM63-129c60-2 137 13 137-47 0-61-80-42-137-45v92" />
      <g
         id="d">
        <use
           id="use5993"
           xlink:href="#O"
           transform="matrix(0.05,0,0,0.05,0,0)" />
        <use
           id="use5995"
           xlink:href="#P"
           transform="matrix(0.05,0,0,0.05,5,0)" />
      </g>
      <path
         id="Q"
         d="M143 4C61 4 22-44 18-125c-5-107 100-154 193-111 17 8 29 25 37 43l-32 9c-13-25-37-40-76-40-61 0-88 39-88 99 0 61 29 100 91 101 35 0 62-11 79-27v-45h-74v-28h105v86C228-13 192 4 143 4" />
      <path
         id="R"
         d="M100-194c62-1 85 37 85 99 1 63-27 99-86 99S16-35 15-95c0-66 28-99 85-99zM99-20c44 1 53-31 53-75 0-43-8-75-51-75s-53 32-53 75 10 74 51 75" />
      <path
         id="S"
         d="M18-100v-36l175-74v27L42-118l151 64v27" />
      <path
         id="T"
         d="M127-220V0H93v-220H8v-28h204v28h-85" />
      <path
         id="U"
         d="M18-27v-27l151-64-151-65v-27l175 74v36" />
      <g
         id="e">
        <use
           id="use6003"
           xlink:href="#Q"
           transform="matrix(0.05,0,0,0.05,0,0)" />
        <use
           id="use6005"
           xlink:href="#B"
           transform="matrix(0.05,0,0,0.05,14,0)" />
        <use
           id="use6007"
           xlink:href="#I"
           transform="matrix(0.05,0,0,0.05,24,0)" />
        <use
           id="use6009"
           xlink:href="#B"
           transform="matrix(0.05,0,0,0.05,34,0)" />
        <use
           id="use6011"
           xlink:href="#L"
           transform="matrix(0.05,0,0,0.05,44,0)" />
        <use
           id="use6013"
           xlink:href="#F"
           transform="matrix(0.05,0,0,0.05,49.95,0)" />
        <use
           id="use6015"
           xlink:href="#N"
           transform="matrix(0.05,0,0,0.05,59.95,0)" />
        <use
           id="use6017"
           xlink:href="#R"
           transform="matrix(0.05,0,0,0.05,64.95,0)" />
        <use
           id="use6019"
           xlink:href="#L"
           transform="matrix(0.05,0,0,0.05,74.95,0)" />
        <use
           id="use6021"
           xlink:href="#S"
           transform="matrix(0.05,0,0,0.05,80.9,0)" />
        <use
           id="use6023"
           xlink:href="#H"
           transform="matrix(0.05,0,0,0.05,91.4,0)" />
        <use
           id="use6025"
           xlink:href="#M"
           transform="matrix(0.05,0,0,0.05,103.4,0)" />
        <use
           id="use6027"
           xlink:href="#T"
           transform="matrix(0.05,0,0,0.05,115.4,0)" />
        <use
           id="use6029"
           xlink:href="#U"
           transform="matrix(0.05,0,0,0.05,126.35000000000001,0)" />
      </g>
      <path
         id="V"
         d="M126-127c33 6 58 20 58 59 0 88-139 92-164 29-3-8-5-16-6-25l32-3c6 27 21 44 54 44 32 0 52-15 52-46 0-38-36-46-79-43v-28c39 1 72-4 72-42 0-27-17-43-46-43-28 0-47 15-49 41l-32-3c6-42 35-63 81-64 48-1 79 21 79 65 0 36-21 52-52 59" />
      <path
         id="W"
         d="M212-179c-10-28-35-45-73-45-59 0-87 40-87 99 0 60 29 101 89 101 43 0 62-24 78-52l27 14C228-24 195 4 139 4 59 4 22-46 18-125c-6-104 99-153 187-111 19 9 31 26 39 46" />
      <g
         id="f">
        <use
           id="use6034"
           xlink:href="#Q"
           transform="matrix(0.05,0,0,0.05,0,0)" />
        <use
           id="use6036"
           xlink:href="#B"
           transform="matrix(0.05,0,0,0.05,14,0)" />
        <use
           id="use6038"
           xlink:href="#I"
           transform="matrix(0.05,0,0,0.05,24,0)" />
        <use
           id="use6040"
           xlink:href="#B"
           transform="matrix(0.05,0,0,0.05,34,0)" />
        <use
           id="use6042"
           xlink:href="#L"
           transform="matrix(0.05,0,0,0.05,44,0)" />
        <use
           id="use6044"
           xlink:href="#F"
           transform="matrix(0.05,0,0,0.05,49.95,0)" />
        <use
           id="use6046"
           xlink:href="#N"
           transform="matrix(0.05,0,0,0.05,59.95,0)" />
        <use
           id="use6048"
           xlink:href="#R"
           transform="matrix(0.05,0,0,0.05,64.95,0)" />
        <use
           id="use6050"
           xlink:href="#L"
           transform="matrix(0.05,0,0,0.05,74.95,0)" />
        <use
           id="use6052"
           xlink:href="#S"
           transform="matrix(0.05,0,0,0.05,80.9,0)" />
        <use
           id="use6054"
           xlink:href="#V"
           transform="matrix(0.05,0,0,0.05,91.4,0)" />
        <use
           id="use6056"
           xlink:href="#H"
           transform="matrix(0.05,0,0,0.05,101.4,0)" />
        <use
           id="use6058"
           xlink:href="#W"
           transform="matrix(0.05,0,0,0.05,113.4,0)" />
        <use
           id="use6060"
           xlink:href="#U"
           transform="matrix(0.05,0,0,0.05,126.35000000000001,0)" />
      </g>
      <path
         id="X"
         d="M115-194c55 1 70 41 70 98S169 2 115 4C84 4 66-9 55-30l1 105H24l-1-265h31l2 30c10-21 28-34 59-34zm-8 174c40 0 45-34 45-75s-6-73-45-74c-42 0-51 32-51 76 0 43 10 73 51 73" />
      <g
         id="g">
        <use
           id="use6064"
           xlink:href="#T"
           transform="matrix(0.05,0,0,0.05,0,0)" />
        <use
           id="use6066"
           xlink:href="#J"
           transform="matrix(0.05,0,0,0.05,9.950000000000001,0)" />
        <use
           id="use6068"
           xlink:href="#X"
           transform="matrix(0.05,0,0,0.05,18.950000000000003,0)" />
        <use
           id="use6070"
           xlink:href="#B"
           transform="matrix(0.05,0,0,0.05,28.950000000000003,0)" />
      </g>
      <path
         id="Y"
         d="M106-169C34-169 62-67 57 0H25v-261h32l-1 103c12-21 28-36 61-36 89 0 53 116 60 194h-32v-121c2-32-8-49-39-48" />
      <path
         id="Z"
         d="M143 0L79-87 56-68V0H24v-261h32v163l83-92h37l-77 82L181 0h-38" />
      <g
         id="h">
        <use
           id="use6075"
           xlink:href="#W"
           transform="matrix(0.05,0,0,0.05,0,0)" />
        <use
           id="use6077"
           xlink:href="#Y"
           transform="matrix(0.05,0,0,0.05,12.950000000000001,0)" />
        <use
           id="use6079"
           xlink:href="#B"
           transform="matrix(0.05,0,0,0.05,22.950000000000003,0)" />
        <use
           id="use6081"
           xlink:href="#E"
           transform="matrix(0.05,0,0,0.05,32.95,0)" />
        <use
           id="use6083"
           xlink:href="#Z"
           transform="matrix(0.05,0,0,0.05,41.95,0)" />
        <use
           id="use6085"
           xlink:href="#B"
           transform="matrix(0.05,0,0,0.05,50.95,0)" />
        <use
           id="use6087"
           xlink:href="#L"
           transform="matrix(0.05,0,0,0.05,60.95,0)" />
      </g>
      <path
         id="aa"
         d="M30-248c87 1 191-15 191 75 0 78-77 80-158 76V0H30v-248zm33 125c57 0 124 11 124-50 0-59-68-47-124-48v98" />
      <path
         id="ab"
         d="M135-143c-3-34-86-38-87 0 15 53 115 12 119 90S17 21 10-45l28-5c4 36 97 45 98 0-10-56-113-15-118-90-4-57 82-63 122-42 12 7 21 19 24 35" />
      <g
         id="i">
        <use
           id="use6092"
           xlink:href="#aa"
           transform="matrix(0.05,0,0,0.05,0,0)" />
        <use
           id="use6094"
           xlink:href="#L"
           transform="matrix(0.05,0,0,0.05,12,0)" />
        <use
           id="use6096"
           xlink:href="#D"
           transform="matrix(0.05,0,0,0.05,17.95,0)" />
        <use
           id="use6098"
           xlink:href="#I"
           transform="matrix(0.05,0,0,0.05,21.9,0)" />
        <use
           id="use6100"
           xlink:href="#N"
           transform="matrix(0.05,0,0,0.05,31.899999999999995,0)" />
        <use
           id="use6102"
           xlink:href="#B"
           transform="matrix(0.05,0,0,0.05,36.9,0)" />
        <use
           id="use6104"
           xlink:href="#L"
           transform="matrix(0.05,0,0,0.05,46.9,0)" />
        <use
           id="use6106"
           xlink:href="#S"
           transform="matrix(0.05,0,0,0.05,52.85,0)" />
        <use
           id="use6108"
           xlink:href="#P"
           transform="matrix(0.05,0,0,0.05,63.35,0)" />
        <use
           id="use6110"
           xlink:href="#B"
           transform="matrix(0.05,0,0,0.05,76.3,0)" />
        <use
           id="use6112"
           xlink:href="#X"
           transform="matrix(0.05,0,0,0.05,86.3,0)" />
        <use
           id="use6114"
           xlink:href="#L"
           transform="matrix(0.05,0,0,0.05,96.3,0)" />
        <use
           id="use6116"
           xlink:href="#B"
           transform="matrix(0.05,0,0,0.05,102.25,0)" />
        <use
           id="use6118"
           xlink:href="#ab"
           transform="matrix(0.05,0,0,0.05,112.25,0)" />
        <use
           id="use6120"
           xlink:href="#B"
           transform="matrix(0.05,0,0,0.05,121.25,0)" />
        <use
           id="use6122"
           xlink:href="#I"
           transform="matrix(0.05,0,0,0.05,131.25,0)" />
        <use
           id="use6124"
           xlink:href="#N"
           transform="matrix(0.05,0,0,0.05,141.25,0)" />
        <use
           id="use6126"
           xlink:href="#F"
           transform="matrix(0.05,0,0,0.05,146.25,0)" />
        <use
           id="use6128"
           xlink:href="#N"
           transform="matrix(0.05,0,0,0.05,156.25,0)" />
        <use
           id="use6130"
           xlink:href="#D"
           transform="matrix(0.05,0,0,0.05,161.25,0)" />
        <use
           id="use6132"
           xlink:href="#R"
           transform="matrix(0.05,0,0,0.05,165.2,0)" />
        <use
           id="use6134"
           xlink:href="#I"
           transform="matrix(0.05,0,0,0.05,175.2,0)" />
        <use
           id="use6136"
           xlink:href="#U"
           transform="matrix(0.05,0,0,0.05,185.2,0)" />
      </g>
      <g
         id="j">
        <use
           id="use6139"
           xlink:href="#P"
           transform="matrix(0.05,0,0,0.05,0,0)" />
        <use
           id="use6141"
           xlink:href="#B"
           transform="matrix(0.05,0,0,0.05,12.950000000000001,0)" />
        <use
           id="use6143"
           xlink:href="#X"
           transform="matrix(0.05,0,0,0.05,22.950000000000003,0)" />
        <use
           id="use6145"
           xlink:href="#L"
           transform="matrix(0.05,0,0,0.05,32.95,0)" />
        <use
           id="use6147"
           xlink:href="#B"
           transform="matrix(0.05,0,0,0.05,38.900000000000006,0)" />
        <use
           id="use6149"
           xlink:href="#ab"
           transform="matrix(0.05,0,0,0.05,48.900000000000006,0)" />
        <use
           id="use6151"
           xlink:href="#B"
           transform="matrix(0.05,0,0,0.05,57.900000000000006,0)" />
        <use
           id="use6153"
           xlink:href="#I"
           transform="matrix(0.05,0,0,0.05,67.9,0)" />
        <use
           id="use6155"
           xlink:href="#N"
           transform="matrix(0.05,0,0,0.05,77.9,0)" />
        <use
           id="use6157"
           xlink:href="#F"
           transform="matrix(0.05,0,0,0.05,82.9,0)" />
        <use
           id="use6159"
           xlink:href="#N"
           transform="matrix(0.05,0,0,0.05,92.9,0)" />
        <use
           id="use6161"
           xlink:href="#D"
           transform="matrix(0.05,0,0,0.05,97.9,0)" />
        <use
           id="use6163"
           xlink:href="#R"
           transform="matrix(0.05,0,0,0.05,101.85000000000001,0)" />
        <use
           id="use6165"
           xlink:href="#I"
           transform="matrix(0.05,0,0,0.05,111.85000000000001,0)" />
      </g>
      <use
         id="k"
         xlink:href="#W"
         transform="matrix(0.05,0,0,0.05,0,0)" />
      <path
         id="ac"
         d="M153-248C145-148 188 4 80 4 36 3 13-21 6-62l32-5c4 25 16 42 43 43 27 0 39-20 39-49v-147H72v-28h81" />
      <path
         id="ad"
         d="M108 0H70L1-190h34L89-25l56-165h34" />
      <g
         id="l">
        <use
           id="use6171"
           xlink:href="#ac"
           transform="matrix(0.05,0,0,0.05,0,0)" />
        <use
           id="use6173"
           xlink:href="#F"
           transform="matrix(0.05,0,0,0.05,9,0)" />
        <use
           id="use6175"
           xlink:href="#ad"
           transform="matrix(0.05,0,0,0.05,19,0)" />
        <use
           id="use6177"
           xlink:href="#F"
           transform="matrix(0.05,0,0,0.05,28,0)" />
      </g>
      <g
         id="m">
        <use
           id="use6180"
           xlink:href="#O"
           transform="matrix(0.05,0,0,0.05,0,0)" />
        <use
           id="use6182"
           xlink:href="#P"
           transform="matrix(0.05,0,0,0.05,5,0)" />
      </g>
      <path
         id="ae"
         d="M210-169c-67 3-38 105-44 169h-31v-121c0-29-5-50-35-48C34-165 62-65 56 0H25l-1-190h30c1 10-1 24 2 32 10-44 99-50 107 0 11-21 27-35 58-36 85-2 47 119 55 194h-31v-121c0-29-5-49-35-48" />
      <path
         id="af"
         d="M115-194c53 0 69 39 70 98 0 66-23 100-70 100C84 3 66-7 56-30L54 0H23l1-261h32v101c10-23 28-34 59-34zm-8 174c40 0 45-34 45-75 0-40-5-75-45-74-42 0-51 32-51 76 0 43 10 73 51 73" />
      <g
         id="n">
        <use
           id="use6187"
           xlink:href="#M"
           transform="matrix(0.05,0,0,0.05,0,0)" />
        <use
           id="use6189"
           xlink:href="#J"
           transform="matrix(0.05,0,0,0.05,12,0)" />
        <use
           id="use6191"
           xlink:href="#ae"
           transform="matrix(0.05,0,0,0.05,21,0)" />
        <use
           id="use6193"
           xlink:href="#af"
           transform="matrix(0.05,0,0,0.05,35.95,0)" />
        <use
           id="use6195"
           xlink:href="#R"
           transform="matrix(0.05,0,0,0.05,45.95,0)" />
        <use
           id="use6197"
           xlink:href="#G"
           transform="matrix(0.05,0,0,0.05,55.95,0)" />
      </g>
      <g
         id="o">
        <use
           id="use6200"
           xlink:href="#T"
           transform="matrix(0.05,0,0,0.05,0,0)" />
        <use
           id="use6202"
           xlink:href="#F"
           transform="matrix(0.05,0,0,0.05,8.950000000000001,0)" />
        <use
           id="use6204"
           xlink:href="#af"
           transform="matrix(0.05,0,0,0.05,18.950000000000003,0)" />
        <use
           id="use6206"
           xlink:href="#G"
           transform="matrix(0.05,0,0,0.05,28.950000000000003,0)" />
        <use
           id="use6208"
           xlink:href="#B"
           transform="matrix(0.05,0,0,0.05,32.900000000000006,0)" />
      </g>
      <g
         id="p">
        <use
           id="use6211"
           xlink:href="#M"
           transform="matrix(0.05,0,0,0.05,0,0)" />
        <use
           id="use6213"
           xlink:href="#B"
           transform="matrix(0.05,0,0,0.05,12,0)" />
        <use
           id="use6215"
           xlink:href="#ae"
           transform="matrix(0.05,0,0,0.05,22,0)" />
        <use
           id="use6217"
           xlink:href="#F"
           transform="matrix(0.05,0,0,0.05,36.95,0)" />
        <use
           id="use6219"
           xlink:href="#I"
           transform="matrix(0.05,0,0,0.05,46.95,0)" />
        <use
           id="use6221"
           xlink:href="#N"
           transform="matrix(0.05,0,0,0.05,56.95,0)" />
        <use
           id="use6223"
           xlink:href="#D"
           transform="matrix(0.05,0,0,0.05,61.95,0)" />
        <use
           id="use6225"
           xlink:href="#E"
           transform="matrix(0.05,0,0,0.05,65.9,0)" />
      </g>
      <g
         id="q">
        <use
           id="use6228"
           xlink:href="#H"
           transform="matrix(0.05,0,0,0.05,0,0)" />
        <use
           id="use6230"
           xlink:href="#I"
           transform="matrix(0.05,0,0,0.05,12,0)" />
        <use
           id="use6232"
           xlink:href="#F"
           transform="matrix(0.05,0,0,0.05,22,0)" />
        <use
           id="use6234"
           xlink:href="#G"
           transform="matrix(0.05,0,0,0.05,32,0)" />
        <use
           id="use6236"
           xlink:href="#J"
           transform="matrix(0.05,0,0,0.05,35.95,0)" />
        <use
           id="use6238"
           xlink:href="#ab"
           transform="matrix(0.05,0,0,0.05,44.95,0)" />
        <use
           id="use6240"
           xlink:href="#D"
           transform="matrix(0.05,0,0,0.05,53.95,0)" />
        <use
           id="use6242"
           xlink:href="#ab"
           transform="matrix(0.05,0,0,0.05,57.900000000000006,0)" />
      </g>
      <g
         id="r">
        <use
           id="use6245"
           xlink:href="#N"
           transform="matrix(0.05,0,0,0.05,0,0)" />
        <use
           id="use6247"
           xlink:href="#R"
           transform="matrix(0.05,0,0,0.05,5,0)" />
        <use
           id="use6249"
           xlink:href="#Z"
           transform="matrix(0.05,0,0,0.05,15,0)" />
        <use
           id="use6251"
           xlink:href="#B"
           transform="matrix(0.05,0,0,0.05,24,0)" />
        <use
           id="use6253"
           xlink:href="#I"
           transform="matrix(0.05,0,0,0.05,34,0)" />
      </g>
      <g
         id="s">
        <use
           id="use6256"
           xlink:href="#ab"
           transform="matrix(0.05,0,0,0.05,0,0)" />
        <use
           id="use6258"
           xlink:href="#N"
           transform="matrix(0.05,0,0,0.05,9,0)" />
        <use
           id="use6260"
           xlink:href="#L"
           transform="matrix(0.05,0,0,0.05,14,0)" />
        <use
           id="use6262"
           xlink:href="#B"
           transform="matrix(0.05,0,0,0.05,19.95,0)" />
        <use
           id="use6264"
           xlink:href="#F"
           transform="matrix(0.05,0,0,0.05,29.950000000000003,0)" />
        <use
           id="use6266"
           xlink:href="#ae"
           transform="matrix(0.05,0,0,0.05,39.95,0)" />
      </g>
      <g
         id="t">
        <use
           id="use6269"
           xlink:href="#ab"
           transform="matrix(0.05,0,0,0.05,0,0)" />
        <use
           id="use6271"
           xlink:href="#J"
           transform="matrix(0.05,0,0,0.05,9,0)" />
        <use
           id="use6273"
           xlink:href="#I"
           transform="matrix(0.05,0,0,0.05,18,0)" />
        <use
           id="use6275"
           xlink:href="#N"
           transform="matrix(0.05,0,0,0.05,28,0)" />
        <use
           id="use6277"
           xlink:href="#F"
           transform="matrix(0.05,0,0,0.05,33,0)" />
        <use
           id="use6279"
           xlink:href="#C"
           transform="matrix(0.05,0,0,0.05,43,0)" />
      </g>
      <g
         id="u">
        <use
           id="use6282"
           xlink:href="#N"
           transform="matrix(0.05,0,0,0.05,0,0)" />
        <use
           id="use6284"
           xlink:href="#L"
           transform="matrix(0.05,0,0,0.05,5,0)" />
        <use
           id="use6286"
           xlink:href="#B"
           transform="matrix(0.05,0,0,0.05,10.95,0)" />
        <use
           id="use6288"
           xlink:href="#B"
           transform="matrix(0.05,0,0,0.05,20.95,0)" />
      </g>
      <g
         id="v">
        <use
           id="use6291"
           xlink:href="#F"
           transform="matrix(0.05,0,0,0.05,0,0)" />
        <use
           id="use6293"
           xlink:href="#af"
           transform="matrix(0.05,0,0,0.05,10,0)" />
        <use
           id="use6295"
           xlink:href="#ab"
           transform="matrix(0.05,0,0,0.05,20,0)" />
        <use
           id="use6297"
           xlink:href="#N"
           transform="matrix(0.05,0,0,0.05,29,0)" />
        <use
           id="use6299"
           xlink:href="#L"
           transform="matrix(0.05,0,0,0.05,34,0)" />
        <use
           id="use6301"
           xlink:href="#F"
           transform="matrix(0.05,0,0,0.05,39.95,0)" />
        <use
           id="use6303"
           xlink:href="#E"
           transform="matrix(0.05,0,0,0.05,49.95,0)" />
        <use
           id="use6305"
           xlink:href="#N"
           transform="matrix(0.05,0,0,0.05,58.95,0)" />
      </g>
      <g
         id="w">
        <use
           id="use6308"
           xlink:href="#ab"
           transform="matrix(0.05,0,0,0.05,0,0)" />
        <use
           id="use6310"
           xlink:href="#J"
           transform="matrix(0.05,0,0,0.05,9,0)" />
        <use
           id="use6312"
           xlink:href="#I"
           transform="matrix(0.05,0,0,0.05,18,0)" />
        <use
           id="use6314"
           xlink:href="#N"
           transform="matrix(0.05,0,0,0.05,28,0)" />
        <use
           id="use6316"
           xlink:href="#F"
           transform="matrix(0.05,0,0,0.05,33,0)" />
        <use
           id="use6318"
           xlink:href="#C"
           transform="matrix(0.05,0,0,0.05,43,0)" />
      </g>
      <g
         id="x">
        <use
           id="use6321"
           xlink:href="#N"
           transform="matrix(0.05,0,0,0.05,0,0)" />
        <use
           id="use6323"
           xlink:href="#Y"
           transform="matrix(0.05,0,0,0.05,5,0)" />
        <use
           id="use6325"
           xlink:href="#L"
           transform="matrix(0.05,0,0,0.05,15,0)" />
        <use
           id="use6327"
           xlink:href="#B"
           transform="matrix(0.05,0,0,0.05,20.95,0)" />
        <use
           id="use6329"
           xlink:href="#B"
           transform="matrix(0.05,0,0,0.05,30.950000000000003,0)" />
      </g>
      <path
         id="ag"
         d="M85-194c31 0 48 13 60 33l-1-100h32l1 261h-30c-2-10 0-23-3-31C134-8 116 4 85 4 32 4 16-35 15-94c0-66 23-100 70-100zm9 24c-40 0-46 34-46 75 0 40 6 74 45 74 42 0 51-32 51-76 0-42-9-74-50-73" />
      <g
         id="y">
        <use
           id="use6333"
           xlink:href="#F"
           transform="matrix(0.05,0,0,0.05,0,0)" />
        <use
           id="use6335"
           xlink:href="#ag"
           transform="matrix(0.05,0,0,0.05,10,0)" />
        <use
           id="use6337"
           xlink:href="#ag"
           transform="matrix(0.05,0,0,0.05,20,0)" />
        <use
           id="use6339"
           xlink:href="#L"
           transform="matrix(0.05,0,0,0.05,30,0)" />
        <use
           id="use6341"
           xlink:href="#B"
           transform="matrix(0.05,0,0,0.05,35.95,0)" />
        <use
           id="use6343"
           xlink:href="#ab"
           transform="matrix(0.05,0,0,0.05,45.95,0)" />
        <use
           id="use6345"
           xlink:href="#ab"
           transform="matrix(0.05,0,0,0.05,54.95,0)" />
      </g>
      <g
         id="z">
        <use
           id="use6348"
           xlink:href="#E"
           transform="matrix(0.05,0,0,0.05,0,0)" />
        <use
           id="use6350"
           xlink:href="#R"
           transform="matrix(0.05,0,0,0.05,9,0)" />
        <use
           id="use6352"
           xlink:href="#ag"
           transform="matrix(0.05,0,0,0.05,19,0)" />
        <use
           id="use6354"
           xlink:href="#B"
           transform="matrix(0.05,0,0,0.05,29,0)" />
      </g>
    </defs>
  </g>
</svg>
