<svg xmlns="http://www.w3.org/2000/svg" xmlns:xlink="http://www.w3.org/1999/xlink" width="664.99" height="815.85"><g transform="translate(-440 -680)"><path d="M860 840c0 22.1-17.9 40-40 40s-40-17.9-40-40 17.9-40 40-40 40 17.9 40 40z" fill="#e5e5e5"/><path d="M854.6 859.98l-2.14 3.4-3.2 3.88-3.64 3.46-4.04 2.96-1.6.9m-9.65 4l-2.5.65-4.96.67-2.87.1-5.04-.3-4.9-.94-.4-.14m-9.64-4l-3.4-2.16-3.88-3.2-3.46-3.64-2.96-4.04-.9-1.6m-4-9.65l-.65-2.5-.67-4.96-.1-2.87.3-5.04.94-4.9.14-.4m4-9.64l2.16-3.4 3.2-3.88 3.64-3.46 4.04-2.96 1.6-.9m9.65-4l2.5-.65 4.96-.67 2.87-.1 5.04.3 4.9.94.4.14m9.64 4l3.4 2.16 3.88 3.2 3.46 3.64 2.96 4.04.9 1.6m4 9.65l.65 2.5.67 4.96.1 2.87-.3 5.04-.94 4.9-.14.4" stroke="#000" stroke-width="2" fill="none"/><path d="M1005 958.8c0 22.1-17.92 40-40 40-22.1 0-40-17.9-40-40s17.9-40 40-40c22.08 0 40 17.9 40 40z" stroke="#000" stroke-width="2" fill="#fff"/><use xlink:href="#a" transform="matrix(1,0,0,1,929.9863084718214,923.7959571149759) translate(25.925925925925924 41.22222222222222)"/><path d="M925 1066.8c0 22.1-17.92 40-40 40-22.1 0-40-17.9-40-40s17.9-40 40-40c22.08 0 40 17.9 40 40z" stroke="#000" stroke-width="2" fill="#fff"/><use xlink:href="#b" transform="matrix(1,0,0,1,849.9863084718214,1031.7959571149759) translate(26.358024691358025 41.22222222222222)"/><path d="M1085 1066.8c0 22.1-17.92 40-40 40-22.1 0-40-17.9-40-40s17.9-40 40-40c22.08 0 40 17.9 40 40z" stroke="#000" stroke-width="2" fill="#fff"/><use xlink:href="#c" transform="matrix(1,0,0,1,1009.9863084718213,1031.7959571149759) translate(5.05555555555555 41.22222222222222)"/><path d="M685 960c0 22.1-17.9 40-40 40s-40-17.9-40-40 17.9-40 40-40 40 17.9 40 40z" fill="#e5e5e5"/><path d="M679.6 979.98l-2.14 3.4-3.2 3.88-3.64 3.46-4.04 2.96-1.6.9m-9.65 4l-2.5.65-4.96.67-2.87.1-5.04-.3-4.9-.94-.4-.14m-9.64-4l-3.4-2.16-3.88-3.2-3.46-3.64-2.96-4.04-.9-1.6m-4-9.65l-.65-2.5-.67-4.96-.1-2.87.3-5.04.94-4.9.14-.4m4-9.64l2.16-3.4 3.2-3.88 3.64-3.46 4.04-2.96 1.6-.9m9.65-4l2.5-.65 4.96-.67 2.87-.1 5.04.3 4.9.94.4.14m9.64 4l3.4 2.16 3.88 3.2 3.46 3.64 2.96 4.04.9 1.6m4 9.65l.65 2.5.67 4.96.1 2.87-.3 5.04-.94 4.9-.14.4" stroke="#000" stroke-width="2" fill="none"/><path d="M605 1067.8c0 22.1-17.9 40-40 40s-40-17.9-40-40 17.9-40 40-40 40 17.9 40 40z" fill="#e5e5e5"/><path d="M599.6 1087.77l-2.14 3.4-3.2 3.88-3.64 3.46-4.04 2.98-1.6.9m-9.65 4l-2.5.65-4.96.66-2.87.1-5.04-.32-4.9-.93-.4-.13m-9.64-4.02l-3.4-2.15-3.88-3.18-3.46-3.65-2.96-4.04-.9-1.62m-4-9.63l-.65-2.5-.67-4.97-.1-2.87.3-5.04.94-4.9.14-.4m4-9.64l2.16-3.4 3.2-3.9 3.64-3.44 4.04-2.97 1.6-.9m9.65-3.98l2.5-.66 4.96-.66 2.87-.1 5.04.3 4.9.94.4.13m9.64 4.02l3.4 2.13 3.88 3.2 3.46 3.64 2.96 4.04.9 1.63m4 9.63l.65 2.5.67 4.96.1 2.87-.3 5.03-.94 4.9-.14.4" stroke="#000" stroke-width="2" fill="none"/><use xlink:href="#d" transform="matrix(1,0,0,1,530,1032.7939943076954) translate(10.888888888888886 41.22222222222222)"/><path d="M765 1067.8c0 22.1-17.9 40-40 40s-40-17.9-40-40 17.9-40 40-40 40 17.9 40 40z" stroke="#000" stroke-width="2" fill="#fff"/><use xlink:href="#a" transform="matrix(1,0,0,1,690,1032.7939943076954) translate(25.925925925925924 41.22222222222222)"/><path d="M685 1187.8c0 22.1-17.9 40-40 40s-40-17.9-40-40 17.9-40 40-40 40 17.9 40 40z" stroke="#000" stroke-width="2" fill="#fff"/><use xlink:href="#e" transform="matrix(1,0,0,1,610,1152.7939943076954) translate(30.679012345679013 41.22222222222222)"/><path d="M845 1187.8c0 22.1-17.9 40-40 40s-40-17.9-40-40 17.9-40 40-40 40 17.9 40 40z" stroke="#000" stroke-width="2" fill="#fff"/><use xlink:href="#f" transform="matrix(1,0,0,1,770,1152.7939943076954) translate(25.925925925925924 41.22222222222222)"/><path d="M765 1307.8c0 22.1-17.9 40-40 40s-40-17.9-40-40 17.9-40 40-40 40 17.9 40 40z" stroke="#000" stroke-width="2" fill="#fff"/><use xlink:href="#g" transform="matrix(1,0,0,1,690,1272.7939943076954) translate(28.950617283950617 41.22222222222222)"/><path d="M925 1307.8c0 22.1-17.9 40-40 40s-40-17.9-40-40 17.9-40 40-40 40 17.9 40 40z" stroke="#000" stroke-width="2" fill="#fff"/><use xlink:href="#h" transform="matrix(1,0,0,1,850,1272.7939943076954) translate(5.05555555555555 41.22222222222222)"/><path d="M685 1435.85c0 22.1-17.9 40-40 40s-40-17.9-40-40 17.9-40 40-40 40 17.9 40 40z" stroke="#000" stroke-width="2" fill="#fff"/><use xlink:href="#i" transform="matrix(1,0,0,1,610,1400.8523890540905) translate(5.05555555555555 41.22222222222222)"/><path d="M845 1435.85c0 22.1-17.9 40-40 40s-40-17.9-40-40 17.9-40 40-40 40 17.9 40 40z" stroke="#000" stroke-width="2" fill="#fff"/><use xlink:href="#b" transform="matrix(1,0,0,1,770,1400.8523890540905) translate(26.358024691358025 41.22222222222222)"/><path d="M855 861.2l76.62 73.78" stroke="#000" stroke-width="2" fill="none"/><path d="M855.7 860.48l-1.38 1.44-.6-.56 1.1-1.73zM932.96 934.88l-.43.54-.72 1.13-.87-.85 1.38-1.44z"/><path d="M783.6 858.74L678.07 935.9" stroke="#000" stroke-width="2" fill="none"/><path d="M784.9 859.03l-.72.52-1.18-1.6.9-.68zM678.68 936.72l-.8.6-1.2-1.62.8-.6z"/><path d="M999.4 980.95l45.6 45.85" stroke="#000" stroke-width="2" fill="none"/><path d="M1000.1 980.25l-1.4 1.4-.57-.56 1.1-1.74zM1046.5 1026.9l-1.5-.1.7-.7z"/><path d="M929.14 978.56L885 1026.8" stroke="#000" stroke-width="2" fill="none"/><path d="M930.37 978.7l-.5.53-1.46-1.35.94-1.02zM885 1026.8l-1.4.05.65-.73z"/><path d="M668.8 992.06l32.4 43.67" stroke="#000" stroke-width="2" fill="none"/><path d="M668 992.66l.8-.6zM702 1035.14l-.8.6.8-.6z"/><path d="M619.74 992.2l-37.7 38.37" stroke="#000" stroke-width="2" fill="none"/><path d="M621.22 992.13l-.77.78-1.43-1.4.64-.65zM582.74 1031.27l-.5.5-1.92-.9 1-1z"/><path d="M701.03 1101.07L645 1147.8" stroke="#000" stroke-width="2" fill="none"/><path d="M701.62 1100.25l1.1.7-1.04.88-1.3-1.53.65-.53zM645 1147.8l-1.63.05 1-.82z"/><path d="M751.3 1099.25l53.7 48.54" stroke="#000" stroke-width="2" fill="none"/><path d="M751.97 1098.5l-1.35 1.5-.9-.82.9-.67.66-.6zM806.6 1147.9l-1.6-.1.67-.75z"/><path d="M777.2 1217.92L725 1267.8" stroke="#000" stroke-width="2" fill="none"/><path d="M777.74 1217.07l.97.8-.8.77-1.4-1.44.72-.68zM725 1267.8l-1.5.05.8-.78z"/><path d="M829.83 1220.33l52.64 46.55" stroke="#000" stroke-width="2" fill="none"/><path d="M830.5 1219.58l-1.33 1.5-.93-.82 1.65-1.2zM885 1267.8l-2.87.1h-.02l-.3-.27 1.33-1.5z"/><path d="M750.64 1339.74l54.36 56.1" stroke="#000" stroke-width="2" fill="none"/><path d="M751.36 1339.04l-1.43 1.4-.8-.83 1.5-1.1.1-.1zM806.48 1395.94l-1.48-.1.72-.68z"/><path d="M700.25 1340.42L645 1395.85" stroke="#000" stroke-width="2" fill="none"/><path d="M701.62 1340.25l.13.08-.8.8-1.4-1.42.63-.63zM645 1395.85l-1.46.05.75-.75z"/><path d="M560 820c0 22.1-17.9 40-40 40s-40-17.9-40-40 17.9-40 40-40 40 17.9 40 40z" fill="#e5e5e5"/><path d="M554.6 839.98l-2.14 3.4-3.2 3.88-3.64 3.46-4.04 2.96-1.6.9m-9.65 4l-2.5.65-4.96.67-2.87.1-5.04-.3-4.9-.94-.4-.14m-9.64-4l-3.4-2.16-3.88-3.2-3.46-3.64-2.96-4.04-.9-1.6m-4-9.65l-.65-2.5-.67-4.96-.1-2.87.3-5.04.94-4.9.14-.4m4-9.64l2.16-3.4 3.2-3.88 3.64-3.46 4.04-2.96 1.6-.9m9.65-4l2.5-.65 4.96-.67 2.87-.1 5.04.3 4.9.94.4.14m9.64 4l3.4 2.16 3.88 3.2 3.46 3.64 2.96 4.04.9 1.6m4 9.65l.65 2.5.67 4.96.1 2.87-.3 5.04-.94 4.9-.14.4" stroke="#000" stroke-width="2" fill="none"/><use xlink:href="#j" transform="matrix(1,0,0,1,485,785) translate(15.246913580246915 26.111111111111114)"/><use xlink:href="#k" transform="matrix(1,0,0,1,485,785) translate(8.487654320987655 52.77777777777778)"/><path d="M680 820c0 22.1-17.9 40-40 40s-40-17.9-40-40 17.9-40 40-40 40 17.9 40 40z" stroke="#000" stroke-width="2" fill="#fff"/><use xlink:href="#l" transform="matrix(1,0,0,1,605,785) translate(13.641975308641978 26.111111111111114)"/><use xlink:href="#k" transform="matrix(1,0,0,1,605,785) translate(8.487654320987655 52.77777777777778)"/><path d="M460 770h250v100H460zM460 700h250v70H460z" stroke="#000" stroke-width="2" fill="none"/><g><use xlink:href="#m" transform="matrix(1,0,0,1,465,705) translate(79.25925925925925 34.888888888888886)"/></g><defs><path d="M18-150v-26h174v26H18zm0 90v-26h174v26H18" id="n"/><use transform="matrix(0.08641975308641976,0,0,0.08641975308641976,0,0)" xlink:href="#n" id="a"/><path d="M141-36C126-15 110 5 73 4 37 3 15-17 15-53c-1-64 63-63 125-63 3-35-9-54-41-54-24 1-41 7-42 31l-33-3c5-37 33-52 76-52 45 0 72 20 72 64v82c-1 20 7 32 28 27v20c-31 9-61-2-59-35zM48-53c0 20 12 33 32 33 41-3 63-29 60-74-43 2-92-5-92 41" id="o"/><use transform="matrix(0.08641975308641976,0,0,0.08641975308641976,0,0)" xlink:href="#o" id="b"/><path d="M26 75v-336h71v23H56V52h41v23H26" id="p"/><path d="M27 0v-27h64v-190l-56 39v-29l58-41h29v221h61V0H27" id="q"/><path d="M32 76v-337h29V76H32" id="r"/><path d="M3 75V52h41v-290H3v-23h71V75H3" id="s"/><g id="c"><use transform="matrix(0.08641975308641976,0,0,0.08641975308641976,0,0)" xlink:href="#p"/><use transform="matrix(0.08641975308641976,0,0,0.08641975308641976,8.641975308641976,0)" xlink:href="#q"/><use transform="matrix(0.08641975308641976,0,0,0.08641975308641976,25.925925925925927,0)" xlink:href="#r"/><use transform="matrix(0.08641975308641976,0,0,0.08641975308641976,33.96296296296297,0)" xlink:href="#q"/><use transform="matrix(0.08641975308641976,0,0,0.08641975308641976,51.246913580246925,0)" xlink:href="#s"/></g><path d="M117-194c89-4 53 116 60 194h-32v-121c0-31-8-49-39-48C34-167 62-67 57 0H25l-1-190h30c1 10-1 24 2 32 11-22 29-35 61-36" id="t"/><path d="M84 4C-5 8 30-112 23-190h32v120c0 31 7 50 39 49 72-2 45-101 50-169h31l1 190h-30c-1-10 1-25-2-33-11 22-28 36-60 37" id="u"/><path d="M24 0v-261h32V0H24" id="v"/><g id="d"><use transform="matrix(0.08641975308641976,0,0,0.08641975308641976,0,0)" xlink:href="#t"/><use transform="matrix(0.08641975308641976,0,0,0.08641975308641976,17.283950617283953,0)" xlink:href="#u"/><use transform="matrix(0.08641975308641976,0,0,0.08641975308641976,34.567901234567906,0)" xlink:href="#v"/><use transform="matrix(0.08641975308641976,0,0,0.08641975308641976,41.39506172839506,0)" xlink:href="#v"/></g><path d="M101-234c-31-9-42 10-38 44h38v23H63V0H32v-167H5v-23h27c-7-52 17-82 69-68v24" id="w"/><use transform="matrix(0.08641975308641976,0,0,0.08641975308641976,0,0)" xlink:href="#w" id="e"/><path d="M118-107v75H92v-75H18v-26h74v-75h26v75h74v26h-74" id="x"/><use transform="matrix(0.08641975308641976,0,0,0.08641975308641976,0,0)" xlink:href="#x" id="f"/><path d="M80-196l47-18 7 23-49 13 32 44-20 13-27-46-27 45-21-12 33-44-49-13 8-23 47 19-2-53h23" id="y"/><use transform="matrix(0.08641975308641976,0,0,0.08641975308641976,0,0)" xlink:href="#y" id="g"/><path d="M101-251c82-7 93 87 43 132L82-64C71-53 59-42 53-27h129V0H18c2-99 128-94 128-182 0-28-16-43-45-43s-46 15-49 41l-32-3c6-41 34-60 81-64" id="z"/><g id="h"><use transform="matrix(0.08641975308641976,0,0,0.08641975308641976,0,0)" xlink:href="#p"/><use transform="matrix(0.08641975308641976,0,0,0.08641975308641976,8.641975308641976,0)" xlink:href="#q"/><use transform="matrix(0.08641975308641976,0,0,0.08641975308641976,25.925925925925927,0)" xlink:href="#r"/><use transform="matrix(0.08641975308641976,0,0,0.08641975308641976,33.96296296296297,0)" xlink:href="#z"/><use transform="matrix(0.08641975308641976,0,0,0.08641975308641976,51.246913580246925,0)" xlink:href="#s"/></g><path d="M126-127c33 6 58 20 58 59 0 88-139 92-164 29-3-8-5-16-6-25l32-3c6 27 21 44 54 44 32 0 52-15 52-46 0-38-36-46-79-43v-28c39 1 72-4 72-42 0-27-17-43-46-43-28 0-47 15-49 41l-32-3c6-42 35-63 81-64 48-1 79 21 79 65 0 36-21 52-52 59" id="A"/><g id="i"><use transform="matrix(0.08641975308641976,0,0,0.08641975308641976,0,0)" xlink:href="#p"/><use transform="matrix(0.08641975308641976,0,0,0.08641975308641976,8.641975308641976,0)" xlink:href="#q"/><use transform="matrix(0.08641975308641976,0,0,0.08641975308641976,25.925925925925927,0)" xlink:href="#r"/><use transform="matrix(0.08641975308641976,0,0,0.08641975308641976,33.96296296296297,0)" xlink:href="#A"/><use transform="matrix(0.08641975308641976,0,0,0.08641975308641976,51.246913580246925,0)" xlink:href="#s"/></g><path d="M185-189c-5-48-123-54-124 2 14 75 158 14 163 119 3 78-121 87-175 55-17-10-28-26-33-46l33-7c5 56 141 63 141-1 0-78-155-14-162-118-5-82 145-84 179-34 5 7 8 16 11 25" id="B"/><path d="M100-194c63 0 86 42 84 106H49c0 40 14 67 53 68 26 1 43-12 49-29l28 8c-11 28-37 45-77 45C44 4 14-33 15-96c1-61 26-98 85-98zm52 81c6-60-76-77-97-28-3 7-6 17-6 28h103" id="C"/><path d="M145-31C134-9 116 4 85 4 32 4 16-35 15-94c0-59 17-99 70-100 32-1 48 14 60 33 0-11-1-24 2-32h30l-1 268h-32zM93-21c41 0 51-33 51-76s-8-73-50-73c-40 0-46 35-46 75s5 74 45 74" id="D"/><g id="j"><use transform="matrix(0.06172839506172839,0,0,0.06172839506172839,0,0)" xlink:href="#B"/><use transform="matrix(0.06172839506172839,0,0,0.06172839506172839,14.814814814814813,0)" xlink:href="#C"/><use transform="matrix(0.06172839506172839,0,0,0.06172839506172839,27.160493827160494,0)" xlink:href="#D"/></g><path d="M190 0L58-211 59 0H30v-248h39L202-35l-2-213h31V0h-41" id="E"/><path d="M100-194c62-1 85 37 85 99 1 63-27 99-86 99S16-35 15-95c0-66 28-99 85-99zM99-20c44 1 53-31 53-75 0-43-8-75-51-75s-53 32-53 75 10 74 51 75" id="F"/><path d="M85-194c31 0 48 13 60 33l-1-100h32l1 261h-30c-2-10 0-23-3-31C134-8 116 4 85 4 32 4 16-35 15-94c0-66 23-100 70-100zm9 24c-40 0-46 34-46 75 0 40 6 74 45 74 42 0 51-32 51-76 0-42-9-74-50-73" id="G"/><g id="k"><use transform="matrix(0.06172839506172839,0,0,0.06172839506172839,0,0)" xlink:href="#E"/><use transform="matrix(0.06172839506172839,0,0,0.06172839506172839,15.987654320987653,0)" xlink:href="#F"/><use transform="matrix(0.06172839506172839,0,0,0.06172839506172839,28.333333333333332,0)" xlink:href="#G"/><use transform="matrix(0.06172839506172839,0,0,0.06172839506172839,40.67901234567901,0)" xlink:href="#C"/></g><path d="M205 0l-28-72H64L36 0H1l101-248h38L239 0h-34zm-38-99l-47-123c-12 45-31 82-46 123h93" id="H"/><path d="M127-220V0H93v-220H8v-28h204v28h-85" id="I"/><g id="l"><use transform="matrix(0.06172839506172839,0,0,0.06172839506172839,0,0)" xlink:href="#H"/><use transform="matrix(0.06172839506172839,0,0,0.06172839506172839,14.814814814814813,0)" xlink:href="#B"/><use transform="matrix(0.06172839506172839,0,0,0.06172839506172839,29.629629629629626,0)" xlink:href="#I"/></g><path d="M30 0v-248h33v221h125V0H30" id="J"/><path d="M177-190C167-65 218 103 67 71c-23-6-38-20-44-43l32-5c15 47 100 32 89-28v-30C133-14 115 1 83 1 29 1 15-40 15-95c0-56 16-97 71-98 29-1 48 16 59 35 1-10 0-23 2-32h30zM94-22c36 0 50-32 50-73 0-42-14-75-50-75-39 0-46 34-46 75s6 73 46 73" id="K"/><g id="m"><use transform="matrix(0.06790123456790124,0,0,0.06790123456790124,0,0)" xlink:href="#J"/><use transform="matrix(0.06790123456790124,0,0,0.06790123456790124,13.580246913580249,0)" xlink:href="#C"/><use transform="matrix(0.06790123456790124,0,0,0.06790123456790124,27.160493827160497,0)" xlink:href="#K"/><use transform="matrix(0.06790123456790124,0,0,0.06790123456790124,40.74074074074075,0)" xlink:href="#C"/><use transform="matrix(0.06790123456790124,0,0,0.06790123456790124,54.320987654320994,0)" xlink:href="#t"/><use transform="matrix(0.06790123456790124,0,0,0.06790123456790124,67.90123456790124,0)" xlink:href="#G"/></g></defs></g></svg>