<?xml version="1.0" encoding="UTF-8" standalone="no"?>
<svg
   xmlns:dc="http://purl.org/dc/elements/1.1/"
   xmlns:cc="http://creativecommons.org/ns#"
   xmlns:rdf="http://www.w3.org/1999/02/22-rdf-syntax-ns#"
   xmlns:svg="http://www.w3.org/2000/svg"
   xmlns="http://www.w3.org/2000/svg"
   xmlns:xlink="http://www.w3.org/1999/xlink"
   xmlns:sodipodi="http://sodipodi.sourceforge.net/DTD/sodipodi-0.dtd"
   xmlns:inkscape="http://www.inkscape.org/namespaces/inkscape"
   width="804"
   height="833"
   id="svg4216"
   version="1.1"
   inkscape:version="0.91 r13725"
   sodipodi:docname="indirect_triples.svg">
  <metadata
     id="metadata4642">
    <rdf:RDF>
      <cc:Work
         rdf:about="">
        <dc:format>image/svg+xml</dc:format>
        <dc:type
           rdf:resource="http://purl.org/dc/dcmitype/StillImage" />
        <dc:title></dc:title>
      </cc:Work>
    </rdf:RDF>
  </metadata>
  <defs
     id="defs4640" />
  <sodipodi:namedview
     pagecolor="#ffffff"
     bordercolor="#666666"
     borderopacity="1"
     objecttolerance="10"
     gridtolerance="10"
     guidetolerance="10"
     inkscape:pageopacity="0"
     inkscape:pageshadow="2"
     inkscape:window-width="1860"
     inkscape:window-height="1040"
     id="namedview4638"
     showgrid="false"
     inkscape:zoom="1.0384154"
     inkscape:cx="402"
     inkscape:cy="416.5"
     inkscape:window-x="0"
     inkscape:window-y="0"
     inkscape:window-maximized="0"
     inkscape:current-layer="svg4216" />
  <g
     transform="translate(-1323 -491)"
     id="g4218">
    <path
       d="M1340 880h60v60h-60zM1400 880h60v60h-60zM1460 880h60v60h-60zM1340 1040h60v60h-60zM1400 1040h60v60h-60zM1460 1040h60v60h-60zM1340 1200h60v60h-60zM1400 1200h60v60h-60zM1460 1200h60v60h-60z"
       stroke="#000"
       stroke-width="2"
       fill="#fff"
       id="path4220" />
    <path
       d="M1370 940v99"
       stroke="#000"
       stroke-width="2"
       fill="none"
       id="path4222" />
    <path
       d="M1370 1039l-4.64-14.27h9.28z"
       id="path4224" />
    <path
       d="M1370.73 1040h-1.46l-5.28-16.27h12zm-4-14.27l3.27 10.03 3.26-10.03z"
       id="path4226" />
    <path
       d="M1430 1040v-99"
       stroke="#000"
       stroke-width="2"
       fill="none"
       id="path4228" />
    <path
       d="M1434.64 955.27h-9.28L1430 941z"
       id="path4230" />
    <path
       d="M1436 956.27h-12l5.27-16.27h1.46zm-9.26-2h6.52l-3.26-10.03z"
       id="path4232" />
    <path
       d="M1370 1100v99"
       stroke="#000"
       stroke-width="2"
       fill="none"
       id="path4234" />
    <path
       d="M1370 1199l-4.64-14.27h9.28z"
       id="path4236" />
    <path
       d="M1370.73 1200h-1.46l-5.28-16.27h12zm-4-14.27l3.27 10.03 3.26-10.03z"
       id="path4238" />
    <path
       d="M1430 1200v-99"
       stroke="#000"
       stroke-width="2"
       fill="none"
       id="path4240" />
    <path
       d="M1434.64 1115.27h-9.28L1430 1101z"
       id="path4242" />
    <path
       d="M1436 1116.27h-12l5.27-16.27h1.46zm-9.26-2h6.52l-3.26-10.03z"
       id="path4244" />
    <path
       d="M1640 880h60v60h-60z"
       stroke="#000"
       stroke-width="2"
       fill="#fff"
       id="path4246" />
    <use
       xlink:href="#a"
       transform="matrix(1,0,0,1,1645,885) translate(17.22222222222222 34)"
       id="use4248" />
    <path
       d="M1700 880h60v60h-60z"
       stroke="#000"
       stroke-width="2"
       fill="#fff"
       id="path4250" />
    <use
       xlink:href="#b"
       transform="matrix(1,0,0,1,1705,885) translate(-0.6666666666666714 30.333333333333336)"
       id="use4252" />
    <path
       d="M1760 880h60v60h-60zM1640 1040h60v60h-60z"
       stroke="#000"
       stroke-width="2"
       fill="#fff"
       id="path4254" />
    <use
       xlink:href="#c"
       transform="matrix(1,0,0,1,1645,1045) translate(13.333333333333334 34)"
       id="use4256" />
    <path
       d="M1700 1040h60v60h-60zM1760 1040h60v60h-60z"
       stroke="#000"
       stroke-width="2"
       fill="#fff"
       id="path4258" />
    <use
       xlink:href="#d"
       transform="matrix(1,0,0,1,1765,1045) translate(-0.6666666666666714 30.333333333333336)"
       id="use4260" />
    <path
       d="M1640 1200h60v60h-60z"
       stroke="#000"
       stroke-width="2"
       fill="#fff"
       id="path4262" />
    <use
       xlink:href="#e"
       transform="matrix(1,0,0,1,1645,1205) translate(13.333333333333334 34)"
       id="use4264" />
    <path
       d="M1700 1200h60v60h-60zM1760 1200h60v60h-60zM1960 880h80v60h-80z"
       stroke="#000"
       stroke-width="2"
       fill="#fff"
       id="path4266" />
    <use
       xlink:href="#f"
       transform="matrix(1,0,0,1,1965,885) translate(18.703703703703702 30.333333333333336)"
       id="use4268" />
    <path
       d="M2040 880h80v60h-80z"
       stroke="#000"
       stroke-width="2"
       fill="#fff"
       id="path4270" />
    <use
       xlink:href="#g"
       transform="matrix(1,0,0,1,2045,885) translate(9.111111111111107 30.333333333333336)"
       id="use4272" />
    <path
       d="M1960 940h80v60h-80z"
       stroke="#000"
       stroke-width="2"
       fill="#fff"
       id="path4274" />
    <use
       xlink:href="#h"
       transform="matrix(1,0,0,1,1965,945) translate(18.703703703703702 30.333333333333336)"
       id="use4276" />
    <path
       d="M2040 940h80v60h-80z"
       stroke="#000"
       stroke-width="2"
       fill="#fff"
       id="path4278" />
    <use
       xlink:href="#g"
       transform="matrix(1,0,0,1,2045,945) translate(9.111111111111107 30.333333333333336)"
       id="use4280" />
    <path
       d="M1340 720h60v60h-60zM1400 720h60v60h-60zM1460 720h60v60h-60zM1640 720h60v60h-60z"
       stroke="#000"
       stroke-width="2"
       fill="#fff"
       id="path4282" />
    <use
       xlink:href="#e"
       transform="matrix(1,0,0,1,1645,725) translate(13.333333333333334 33)"
       id="use4284" />
    <path
       d="M1700 720h60v60h-60zM1760 720h60v60h-60z"
       stroke="#000"
       stroke-width="2"
       fill="#fff"
       id="path4286" />
    <use
       xlink:href="#i"
       transform="matrix(1,0,0,1,1765,725) translate(-0.6666666666666714 30.333333333333336)"
       id="use4288" />
    <path
       d="M1370 781v98"
       stroke="#000"
       stroke-width="2"
       fill="none"
       id="path4290" />
    <path
       d="M1371 781h-2v-1h2zM1370 879l-4.64-14.27h9.28z"
       id="path4292" />
    <path
       d="M1370.73 880h-1.46l-5.28-16.27h12zm-4-14.27l3.27 10.03 3.26-10.03z"
       id="path4294" />
    <path
       d="M1430 879v-98"
       stroke="#000"
       stroke-width="2"
       fill="none"
       id="path4296" />
    <path
       d="M1431 880h-2v-1h2zM1434.64 795.27h-9.28L1430 781z"
       id="path4298" />
    <path
       d="M1436 796.27h-12l5.27-16.27h1.46zm-9.26-2h6.52l-3.26-10.03z"
       id="path4300" />
    <path
       d="M1520 750h119"
       stroke="#000"
       stroke-width="2"
       fill="none"
       id="path4302" />
    <path
       d="M1639 750l-14.27 4.64v-9.28z"
       id="path4304" />
    <path
       d="M1640 749.27v1.46l-16.27 5.28v-12zm-14.27 4l10.03-3.27-10.03-3.26z"
       id="path4306" />
    <path
       d="M1520 910h119"
       stroke="#000"
       stroke-width="2"
       fill="none"
       id="path4308" />
    <path
       d="M1639 910l-14.27 4.64v-9.28z"
       id="path4310" />
    <path
       d="M1640 909.27v1.46l-16.27 5.28v-12zm-14.27 4l10.03-3.27-10.03-3.26z"
       id="path4312" />
    <path
       d="M1520 1070h120"
       stroke="#000"
       stroke-width="2"
       fill="none"
       id="path4314" />
    <path
       d="M1640 1070l-14.27 4.64v-9.28z"
       id="path4316" />
    <path
       d="M1640 1068.95v2.1l-15.27 4.96v-12zm-13.27 4.3l10.03-3.25-10.03-3.26z"
       id="path4318" />
    <path
       d="M1520 1230h119"
       stroke="#000"
       stroke-width="2"
       fill="none"
       id="path4320" />
    <path
       d="M1639 1230l-14.27 4.64v-9.28z"
       id="path4322" />
    <path
       d="M1640 1229.27v1.46l-16.27 5.28v-12zm-14.27 4l10.03-3.27-10.03-3.26z"
       id="path4324" />
    <path
       d="M1730 720v-40h189v209.33h40"
       stroke="#000"
       stroke-width="2"
       fill="none"
       id="path4326" />
    <path
       d="M1959 889.33l-14.27 4.64v-9.27z"
       id="path4328" />
    <path
       d="M1960 888.6v1.46l-16.27 5.3V883.3zm-14.27 4l10.03-3.27-10.03-3.26z"
       id="path4330" />
    <path
       d="M1730 1260v40h270v-300"
       stroke="#000"
       stroke-width="2"
       fill="none"
       id="path4332" />
    <path
       d="M2004.64 1014.27h-9.28L2000 1000z"
       id="path4334" />
    <path
       d="M2006 1015.27h-12l4.95-15.27h2.1zm-9.26-2h6.52l-3.26-10.03z"
       id="path4336" />
    <path
       d="M1820 910h139"
       stroke="#000"
       stroke-width="2"
       fill="none"
       id="path4338" />
    <path
       d="M1959 910l-14.27 4.64v-9.28z"
       id="path4340" />
    <path
       d="M1960 909.27v1.46l-16.27 5.28v-12zm-14.27 4l10.03-3.27-10.03-3.26z"
       id="path4342" />
    <path
       d="M1730 1040v-50h-60v-50"
       stroke="#000"
       stroke-width="2"
       fill="none"
       id="path4344" />
    <path
       d="M1674.64 954.27h-9.28L1670 940z"
       id="path4346" />
    <path
       d="M1676 955.27h-12l4.95-15.27h2.1zm-9.26-2h6.52l-3.26-10.03z"
       id="path4348" />
    <path
       d="M1790 1200v-50h-120v-50"
       stroke="#000"
       stroke-width="2"
       fill="none"
       id="path4350" />
    <path
       d="M1674.64 1114.27h-9.28L1670 1100z"
       id="path4352" />
    <path
       d="M1676 1115.27h-12l4.95-15.27h2.1zm-9.26-2h6.52l-3.26-10.03z"
       id="path4354" />
    <path
       d="M1340 520h180v60h-180z"
       stroke="#000"
       stroke-width="2"
       fill="#e5e5e5"
       id="path4356" />
    <use
       xlink:href="#j"
       transform="matrix(1,0,0,1,1345,525) translate(13.487654320987659 29.444444444444443)"
       id="use4358" />
    <use
       xlink:href="#k"
       transform="matrix(1,0,0,1,1345,525) translate(122.00617283950618 29.444444444444443)"
       id="use4360" />
    <path
       d="M1640 520h180v60h-180z"
       stroke="#000"
       stroke-width="2"
       fill="#ffeca9"
       id="path4362" />
    <use
       xlink:href="#l"
       transform="matrix(1,0,0,1,1645,525) translate(63.425925925925924 29.444444444444443)"
       id="use4364" />
    <path
       d="M1960 520h160v60h-160z"
       stroke="#000"
       stroke-width="2"
       fill="#c1e4f7"
       id="path4366" />
    <use
       xlink:href="#m"
       transform="matrix(1,0,0,1,1965,525) translate(8.456790123456798 29.444444444444443)"
       id="use4368" />
    <use
       xlink:href="#n"
       transform="matrix(1,0,0,1,1965,525) translate(88.58024691358024 29.444444444444443)"
       id="use4370" />
    <path
       d="M1340 580h180v60h-180z"
       fill="#e5e5e5"
       id="path4372" />
    <path
       d="M1362.22 580h2.22m11.12 0h2.22m11.1 0h22.23m11.12 0h2.22m11.12 0h2.22m11.1 0h22.23m11.12 0h2.22m11.12 0h2.22m11.1 0H1520v11.1m0 11.12v2.22m0 11.12v2.22m0 11.1V640h-11.1m-11.12 0h-2.22m-11.12 0h-2.22m-11.1 0h-22.23m-11.12 0h-2.22m-11.12 0h-2.22m-11.1 0h-22.23m-11.12 0h-2.22m-11.12 0h-2.22m-11.1 0H1340v-11.1m0-11.12v-2.22m0-11.12v-2.22m0-11.1V580h11.1"
       stroke="#000"
       stroke-width="2"
       fill="none"
       id="path4374" />
    <use
       xlink:href="#o"
       transform="matrix(1,0,0,1,1345,585) translate(4.4135802469135825 29.444444444444443)"
       id="use4376" />
    <use
       xlink:href="#p"
       transform="matrix(1,0,0,1,1345,585) translate(58.24074074074075 29.444444444444443)"
       id="use4378" />
    <use
       xlink:href="#q"
       transform="matrix(1,0,0,1,1345,585) translate(112.56172839506173 29.444444444444443)"
       id="use4380" />
    <path
       d="M1640 580h180v60h-180z"
       fill="#ffeca9"
       id="path4382" />
    <path
       d="M1662.22 580h2.22m11.12 0h2.22m11.1 0h22.23m11.12 0h2.22m11.12 0h2.22m11.1 0h22.23m11.12 0h2.22m11.12 0h2.22m11.1 0H1820v11.1m0 11.12v2.22m0 11.12v2.22m0 11.1V640h-11.1m-11.12 0h-2.22m-11.12 0h-2.22m-11.1 0h-22.23m-11.12 0h-2.22m-11.12 0h-2.22m-11.1 0h-22.23m-11.12 0h-2.22m-11.12 0h-2.22m-11.1 0H1640v-11.1m0-11.12v-2.22m0-11.12v-2.22m0-11.1V580h11.1"
       stroke="#000"
       stroke-width="2"
       fill="none"
       id="path4384" />
    <use
       xlink:href="#r"
       transform="matrix(1,0,0,1,1645,585) translate(15.925925925925924 29.444444444444443)"
       id="use4386" />
    <use
       xlink:href="#s"
       transform="matrix(1,0,0,1,1645,585) translate(52.96296296296296 29.444444444444443)"
       id="use4388" />
    <use
       xlink:href="#t"
       transform="matrix(1,0,0,1,1645,585) translate(109.69135802469137 29.444444444444443)"
       id="use4390" />
    <path
       d="M1960 580h160v60h-160z"
       fill="#c1e4f7"
       id="path4392" />
    <path
       d="M1979.75 580h1.98m9.87 0h1.98m9.88 0h19.75m9.9 0h1.96m9.88 0h1.97m9.9 0h19.74m9.88 0h1.98m9.87 0h1.98m9.87 0h9.88v11.1m0 11.12v2.22m0 11.12v2.22m0 11.1V640h-9.88m-9.87 0h-1.98m-9.87 0h-1.98m-9.88 0h-19.75m-9.9 0h-1.96m-9.88 0h-1.97m-9.9 0h-19.74m-9.88 0h-1.98m-9.87 0h-1.98m-9.87 0H1960v-11.1m0-11.12v-2.22m0-11.12v-2.22m0-11.1V580h9.88"
       stroke="#000"
       stroke-width="2"
       fill="none"
       id="path4394" />
    <g
       id="g4396">
      <use
         xlink:href="#u"
         transform="matrix(1,0,0,1,1965,585) translate(39.2283950617284 29.444444444444443)"
         id="use4398" />
      <use
         xlink:href="#v"
         transform="matrix(1,0,0,1,1965,585) translate(68.7962962962963 29.444444444444443)"
         id="use4400" />
    </g>
    <defs
       id="defs4402">
      <path
         d="M80-196l47-18 7 23-49 13 32 44-20 13-27-46-27 45-21-12 33-44-49-13 8-23 47 19-2-53h23"
         id="w" />
      <use
         transform="matrix(0.1111111111111111,0,0,0.1111111111111111,0,0)"
         xlink:href="#w"
         id="a" />
      <path
         d="M26 75v-336h71v23H56V52h41v23H26"
         id="x" />
      <path
         d="M27 0v-27h64v-190l-56 39v-29l58-41h29v221h61V0H27"
         id="y" />
      <path
         d="M32 76v-337h29V76H32"
         id="z" />
      <path
         d="M126-127c33 6 58 20 58 59 0 88-139 92-164 29-3-8-5-16-6-25l32-3c6 27 21 44 54 44 32 0 52-15 52-46 0-38-36-46-79-43v-28c39 1 72-4 72-42 0-27-17-43-46-43-28 0-47 15-49 41l-32-3c6-42 35-63 81-64 48-1 79 21 79 65 0 36-21 52-52 59"
         id="A" />
      <path
         d="M3 75V52h41v-290H3v-23h71V75H3"
         id="B" />
      <g
         id="b">
        <use
           transform="matrix(0.07407407407407408,0,0,0.07407407407407408,0,0)"
           xlink:href="#x"
           id="use4412" />
        <use
           transform="matrix(0.07407407407407408,0,0,0.07407407407407408,7.407407407407408,0)"
           xlink:href="#y"
           id="use4414" />
        <use
           transform="matrix(0.07407407407407408,0,0,0.07407407407407408,22.222222222222225,0)"
           xlink:href="#z"
           id="use4416" />
        <use
           transform="matrix(0.07407407407407408,0,0,0.07407407407407408,29.111111111111114,0)"
           xlink:href="#A"
           id="use4418" />
        <use
           transform="matrix(0.07407407407407408,0,0,0.07407407407407408,43.92592592592593,0)"
           xlink:href="#B"
           id="use4420" />
      </g>
      <path
         d="M118-107v75H92v-75H18v-26h74v-75h26v75h74v26h-74"
         id="C" />
      <use
         transform="matrix(0.1111111111111111,0,0,0.1111111111111111,0,0)"
         xlink:href="#C"
         id="c" />
      <path
         d="M101-251c82-7 93 87 43 132L82-64C71-53 59-42 53-27h129V0H18c2-99 128-94 128-182 0-28-16-43-45-43s-46 15-49 41l-32-3c6-41 34-60 81-64"
         id="D" />
      <g
         id="d">
        <use
           transform="matrix(0.07407407407407408,0,0,0.07407407407407408,0,0)"
           xlink:href="#x"
           id="use4426" />
        <use
           transform="matrix(0.07407407407407408,0,0,0.07407407407407408,7.407407407407408,0)"
           xlink:href="#y"
           id="use4428" />
        <use
           transform="matrix(0.07407407407407408,0,0,0.07407407407407408,22.222222222222225,0)"
           xlink:href="#z"
           id="use4430" />
        <use
           transform="matrix(0.07407407407407408,0,0,0.07407407407407408,29.111111111111114,0)"
           xlink:href="#D"
           id="use4432" />
        <use
           transform="matrix(0.07407407407407408,0,0,0.07407407407407408,43.92592592592593,0)"
           xlink:href="#B"
           id="use4434" />
      </g>
      <path
         d="M18-150v-26h174v26H18zm0 90v-26h174v26H18"
         id="E" />
      <use
         transform="matrix(0.1111111111111111,0,0,0.1111111111111111,0,0)"
         xlink:href="#E"
         id="e" />
      <path
         d="M234-2c-28 10-62 0-77-18C117 19 8 12 13-65c3-43 29-61 60-76-25-40-17-114 47-108 35 3 59 15 59 50 0 44-40 53-71 69 14 26 32 50 51 72 14-21 24-43 30-72l26 8c-9 33-21 57-38 82 13 13 33 22 57 15v23zM97-151c25-10 52-18 56-48-1-18-13-29-33-29-42 0-39 50-23 77zM42-66c-3 51 71 58 98 28-20-24-41-51-56-80-23 10-40 24-42 52"
         id="F" />
      <path
         d="M141-36C126-15 110 5 73 4 37 3 15-17 15-53c-1-64 63-63 125-63 3-35-9-54-41-54-24 1-41 7-42 31l-33-3c5-37 33-52 76-52 45 0 72 20 72 64v82c-1 20 7 32 28 27v20c-31 9-61-2-59-35zM48-53c0 20 12 33 32 33 41-3 63-29 60-74-43 2-92-5-92 41"
         id="G" />
      <g
         id="f">
        <use
           transform="matrix(0.07407407407407408,0,0,0.07407407407407408,0,0)"
           xlink:href="#F"
           id="use4441" />
        <use
           transform="matrix(0.07407407407407408,0,0,0.07407407407407408,17.77777777777778,0)"
           xlink:href="#G"
           id="use4443" />
      </g>
      <path
         d="M101-234c-31-9-42 10-38 44h38v23H63V0H32v-167H5v-23h27c-7-52 17-82 69-68v24"
         id="H" />
      <path
         d="M114-163C36-179 61-72 57 0H25l-1-190h30c1 12-1 29 2 39 6-27 23-49 58-41v29"
         id="I" />
      <path
         d="M96-169c-40 0-48 33-48 73s9 75 48 75c24 0 41-14 43-38l32 2c-6 37-31 61-74 61-59 0-76-41-82-99-10-93 101-131 147-64 4 7 5 14 7 22l-32 3c-4-21-16-35-41-35"
         id="J" />
      <path
         d="M59-47c-2 24 18 29 38 22v24C64 9 27 4 27-40v-127H5v-23h24l9-43h21v43h35v23H59v120"
         id="K" />
      <g
         id="g">
        <use
           transform="matrix(0.07407407407407408,0,0,0.07407407407407408,0,0)"
           xlink:href="#H"
           id="use4450" />
        <use
           transform="matrix(0.07407407407407408,0,0,0.07407407407407408,7.407407407407408,0)"
           xlink:href="#I"
           id="use4452" />
        <use
           transform="matrix(0.07407407407407408,0,0,0.07407407407407408,16.222222222222225,0)"
           xlink:href="#G"
           id="use4454" />
        <use
           transform="matrix(0.07407407407407408,0,0,0.07407407407407408,31.03703703703704,0)"
           xlink:href="#J"
           id="use4456" />
        <use
           transform="matrix(0.07407407407407408,0,0,0.07407407407407408,44.37037037037039,0)"
           xlink:href="#K"
           id="use4458" />
      </g>
      <path
         d="M115-194c53 0 69 39 70 98 0 66-23 100-70 100C84 3 66-7 56-30L54 0H23l1-261h32v101c10-23 28-34 59-34zm-8 174c40 0 45-34 45-75 0-40-5-75-45-74-42 0-51 32-51 76 0 43 10 73 51 73"
         id="L" />
      <g
         id="h">
        <use
           transform="matrix(0.07407407407407408,0,0,0.07407407407407408,0,0)"
           xlink:href="#F"
           id="use4462" />
        <use
           transform="matrix(0.07407407407407408,0,0,0.07407407407407408,17.77777777777778,0)"
           xlink:href="#L"
           id="use4464" />
      </g>
      <g
         id="i">
        <use
           transform="matrix(0.07407407407407408,0,0,0.07407407407407408,0,0)"
           xlink:href="#x"
           id="use4467" />
        <use
           transform="matrix(0.07407407407407408,0,0,0.07407407407407408,7.407407407407408,0)"
           xlink:href="#y"
           id="use4469" />
        <use
           transform="matrix(0.07407407407407408,0,0,0.07407407407407408,22.222222222222225,0)"
           xlink:href="#z"
           id="use4471" />
        <use
           transform="matrix(0.07407407407407408,0,0,0.07407407407407408,29.111111111111114,0)"
           xlink:href="#y"
           id="use4473" />
        <use
           transform="matrix(0.07407407407407408,0,0,0.07407407407407408,43.92592592592593,0)"
           xlink:href="#B"
           id="use4475" />
      </g>
      <path
         d="M33 0v-248h34V0H33"
         id="M" />
      <path
         d="M117-194c89-4 53 116 60 194h-32v-121c0-31-8-49-39-48C34-167 62-67 57 0H25l-1-190h30c1 10-1 24 2 32 11-22 29-35 61-36"
         id="N" />
      <path
         d="M135-143c-3-34-86-38-87 0 15 53 115 12 119 90S17 21 10-45l28-5c4 36 97 45 98 0-10-56-113-15-118-90-4-57 82-63 122-42 12 7 21 19 24 35"
         id="O" />
      <path
         d="M84 4C-5 8 30-112 23-190h32v120c0 31 7 50 39 49 72-2 45-101 50-169h31l1 190h-30c-1-10 1-25-2-33-11 22-28 36-60 37"
         id="P" />
      <path
         d="M24-231v-30h32v30H24zM24 0v-190h32V0H24"
         id="Q" />
      <path
         d="M100-194c62-1 85 37 85 99 1 63-27 99-86 99S16-35 15-95c0-66 28-99 85-99zM99-20c44 1 53-31 53-75 0-43-8-75-51-75s-53 32-53 75 10 74 51 75"
         id="R" />
      <g
         id="j">
        <use
           transform="matrix(0.06172839506172839,0,0,0.06172839506172839,0,0)"
           xlink:href="#M"
           id="use4484" />
        <use
           transform="matrix(0.06172839506172839,0,0,0.06172839506172839,6.172839506172839,0)"
           xlink:href="#N"
           id="use4486" />
        <use
           transform="matrix(0.06172839506172839,0,0,0.06172839506172839,18.51851851851852,0)"
           xlink:href="#O"
           id="use4488" />
        <use
           transform="matrix(0.06172839506172839,0,0,0.06172839506172839,29.62962962962963,0)"
           xlink:href="#K"
           id="use4490" />
        <use
           transform="matrix(0.06172839506172839,0,0,0.06172839506172839,35.80246913580247,0)"
           xlink:href="#I"
           id="use4492" />
        <use
           transform="matrix(0.06172839506172839,0,0,0.06172839506172839,43.148148148148145,0)"
           xlink:href="#P"
           id="use4494" />
        <use
           transform="matrix(0.06172839506172839,0,0,0.06172839506172839,55.49382716049382,0)"
           xlink:href="#J"
           id="use4496" />
        <use
           transform="matrix(0.06172839506172839,0,0,0.06172839506172839,66.60493827160494,0)"
           xlink:href="#K"
           id="use4498" />
        <use
           transform="matrix(0.06172839506172839,0,0,0.06172839506172839,72.77777777777777,0)"
           xlink:href="#Q"
           id="use4500" />
        <use
           transform="matrix(0.06172839506172839,0,0,0.06172839506172839,77.65432098765432,0)"
           xlink:href="#R"
           id="use4502" />
        <use
           transform="matrix(0.06172839506172839,0,0,0.06172839506172839,90,0)"
           xlink:href="#N"
           id="use4504" />
      </g>
      <path
         d="M30 0v-248h33v221h125V0H30"
         id="S" />
      <g
         id="k">
        <use
           transform="matrix(0.06172839506172839,0,0,0.06172839506172839,0,0)"
           xlink:href="#S"
           id="use4508" />
        <use
           transform="matrix(0.06172839506172839,0,0,0.06172839506172839,12.345679012345679,0)"
           xlink:href="#Q"
           id="use4510" />
        <use
           transform="matrix(0.06172839506172839,0,0,0.06172839506172839,17.22222222222222,0)"
           xlink:href="#O"
           id="use4512" />
        <use
           transform="matrix(0.06172839506172839,0,0,0.06172839506172839,28.333333333333332,0)"
           xlink:href="#K"
           id="use4514" />
      </g>
      <path
         d="M205 0l-28-72H64L36 0H1l101-248h38L239 0h-34zm-38-99l-47-123c-12 45-31 82-46 123h93"
         id="T" />
      <path
         d="M212-179c-10-28-35-45-73-45-59 0-87 40-87 99 0 60 29 101 89 101 43 0 62-24 78-52l27 14C228-24 195 4 139 4 59 4 22-46 18-125c-6-104 99-153 187-111 19 9 31 26 39 46"
         id="U" />
      <g
         id="l">
        <use
           transform="matrix(0.06172839506172839,0,0,0.06172839506172839,0,0)"
           xlink:href="#A"
           id="use4519" />
        <use
           transform="matrix(0.06172839506172839,0,0,0.06172839506172839,12.345679012345679,0)"
           xlink:href="#T"
           id="use4521" />
        <use
           transform="matrix(0.06172839506172839,0,0,0.06172839506172839,27.160493827160494,0)"
           xlink:href="#U"
           id="use4523" />
      </g>
      <path
         d="M185-189c-5-48-123-54-124 2 14 75 158 14 163 119 3 78-121 87-175 55-17-10-28-26-33-46l33-7c5 56 141 63 141-1 0-78-155-14-162-118-5-82 145-84 179-34 5 7 8 16 11 25"
         id="V" />
      <path
         d="M179-190L93 31C79 59 56 82 12 73V49c39 6 53-20 64-50L1-190h34L92-34l54-156h33"
         id="W" />
      <path
         d="M210-169c-67 3-38 105-44 169h-31v-121c0-29-5-50-35-48C34-165 62-65 56 0H25l-1-190h30c1 10-1 24 2 32 10-44 99-50 107 0 11-21 27-35 58-36 85-2 47 119 55 194h-31v-121c0-29-5-49-35-48"
         id="X" />
      <path
         d="M24 0v-261h32V0H24"
         id="Y" />
      <g
         id="m">
        <use
           transform="matrix(0.06172839506172839,0,0,0.06172839506172839,0,0)"
           xlink:href="#V"
           id="use4530" />
        <use
           transform="matrix(0.06172839506172839,0,0,0.06172839506172839,14.814814814814813,0)"
           xlink:href="#W"
           id="use4532" />
        <use
           transform="matrix(0.06172839506172839,0,0,0.06172839506172839,25.925925925925924,0)"
           xlink:href="#X"
           id="use4534" />
        <use
           transform="matrix(0.06172839506172839,0,0,0.06172839506172839,44.38271604938271,0)"
           xlink:href="#L"
           id="use4536" />
        <use
           transform="matrix(0.06172839506172839,0,0,0.06172839506172839,56.728395061728385,0)"
           xlink:href="#R"
           id="use4538" />
        <use
           transform="matrix(0.06172839506172839,0,0,0.06172839506172839,69.07407407407406,0)"
           xlink:href="#Y"
           id="use4540" />
      </g>
      <path
         d="M127-220V0H93v-220H8v-28h204v28h-85"
         id="Z" />
      <path
         d="M100-194c63 0 86 42 84 106H49c0 40 14 67 53 68 26 1 43-12 49-29l28 8c-11 28-37 45-77 45C44 4 14-33 15-96c1-61 26-98 85-98zm52 81c6-60-76-77-97-28-3 7-6 17-6 28h103"
         id="aa" />
      <g
         id="n">
        <use
           transform="matrix(0.06172839506172839,0,0,0.06172839506172839,0,0)"
           xlink:href="#Z"
           id="use4545" />
        <use
           transform="matrix(0.06172839506172839,0,0,0.06172839506172839,11.049382716049381,0)"
           xlink:href="#G"
           id="use4547" />
        <use
           transform="matrix(0.06172839506172839,0,0,0.06172839506172839,23.39506172839506,0)"
           xlink:href="#L"
           id="use4549" />
        <use
           transform="matrix(0.06172839506172839,0,0,0.06172839506172839,35.74074074074074,0)"
           xlink:href="#Y"
           id="use4551" />
        <use
           transform="matrix(0.06172839506172839,0,0,0.06172839506172839,40.617283950617285,0)"
           xlink:href="#aa"
           id="use4553" />
      </g>
      <path
         d="M115-194c55 1 70 41 70 98S169 2 115 4C84 4 66-9 55-30l1 105H24l-1-265h31l2 30c10-21 28-34 59-34zm-8 174c40 0 45-34 45-75s-6-73-45-74c-42 0-51 32-51 76 0 43 10 73 51 73"
         id="ab" />
      <path
         d="M108 0H70L1-190h34L89-25l56-165h34"
         id="ac" />
      <path
         d="M68-38c1 34 0 65-14 84H32c9-13 17-26 17-46H33v-38h35"
         id="ad" />
      <g
         id="o">
        <use
           transform="matrix(0.06172839506172839,0,0,0.06172839506172839,0,0)"
           xlink:href="#ab"
           id="use4559" />
        <use
           transform="matrix(0.06172839506172839,0,0,0.06172839506172839,12.345679012345679,0)"
           xlink:href="#I"
           id="use4561" />
        <use
           transform="matrix(0.06172839506172839,0,0,0.06172839506172839,19.691358024691358,0)"
           xlink:href="#aa"
           id="use4563" />
        <use
           transform="matrix(0.06172839506172839,0,0,0.06172839506172839,32.03703703703704,0)"
           xlink:href="#ac"
           id="use4565" />
        <use
           transform="matrix(0.06172839506172839,0,0,0.06172839506172839,41.48148148148148,0)"
           xlink:href="#ad"
           id="use4567" />
      </g>
      <path
         d="M141 0L90-78 38 0H4l68-98-65-92h35l48 74 47-74h35l-64 92 68 98h-35"
         id="ae" />
      <g
         id="p">
        <use
           transform="matrix(0.06172839506172839,0,0,0.06172839506172839,0,0)"
           xlink:href="#N"
           id="use4571" />
        <use
           transform="matrix(0.06172839506172839,0,0,0.06172839506172839,12.345679012345679,0)"
           xlink:href="#aa"
           id="use4573" />
        <use
           transform="matrix(0.06172839506172839,0,0,0.06172839506172839,24.691358024691358,0)"
           xlink:href="#ae"
           id="use4575" />
        <use
           transform="matrix(0.06172839506172839,0,0,0.06172839506172839,35.80246913580247,0)"
           xlink:href="#K"
           id="use4577" />
        <use
           transform="matrix(0.06172839506172839,0,0,0.06172839506172839,41.97530864197531,0)"
           xlink:href="#ad"
           id="use4579" />
      </g>
      <g
         id="q">
        <use
           transform="matrix(0.06172839506172839,0,0,0.06172839506172839,0,0)"
           xlink:href="#ac"
           id="use4582" />
        <use
           transform="matrix(0.06172839506172839,0,0,0.06172839506172839,11.11111111111111,0)"
           xlink:href="#G"
           id="use4584" />
        <use
           transform="matrix(0.06172839506172839,0,0,0.06172839506172839,23.45679012345679,0)"
           xlink:href="#Y"
           id="use4586" />
        <use
           transform="matrix(0.06172839506172839,0,0,0.06172839506172839,28.333333333333336,0)"
           xlink:href="#P"
           id="use4588" />
        <use
           transform="matrix(0.06172839506172839,0,0,0.06172839506172839,40.67901234567901,0)"
           xlink:href="#aa"
           id="use4590" />
      </g>
      <g
         id="r">
        <use
           transform="matrix(0.06172839506172839,0,0,0.06172839506172839,0,0)"
           xlink:href="#R"
           id="use4593" />
        <use
           transform="matrix(0.06172839506172839,0,0,0.06172839506172839,12.345679012345679,0)"
           xlink:href="#ab"
           id="use4595" />
        <use
           transform="matrix(0.06172839506172839,0,0,0.06172839506172839,24.691358024691358,0)"
           xlink:href="#ad"
           id="use4597" />
      </g>
      <path
         d="M177-190C167-65 218 103 67 71c-23-6-38-20-44-43l32-5c15 47 100 32 89-28v-30C133-14 115 1 83 1 29 1 15-40 15-95c0-56 16-97 71-98 29-1 48 16 59 35 1-10 0-23 2-32h30zM94-22c36 0 50-32 50-73 0-42-14-75-50-75-39 0-46 34-46 75s6 73 46 73"
         id="af" />
      <path
         d="M101-251c68 0 85 55 85 127S166 4 100 4C33 4 14-52 14-124c0-73 17-127 87-127zm-1 229c47 0 54-49 54-102s-4-102-53-102c-51 0-55 48-55 102 0 53 5 102 54 102"
         id="ag" />
      <g
         id="s">
        <use
           transform="matrix(0.06172839506172839,0,0,0.06172839506172839,0,0)"
           xlink:href="#G"
           id="use4602" />
        <use
           transform="matrix(0.06172839506172839,0,0,0.06172839506172839,12.345679012345679,0)"
           xlink:href="#I"
           id="use4604" />
        <use
           transform="matrix(0.06172839506172839,0,0,0.06172839506172839,19.691358024691358,0)"
           xlink:href="#af"
           id="use4606" />
        <use
           transform="matrix(0.06172839506172839,0,0,0.06172839506172839,32.03703703703704,0)"
           xlink:href="#ag"
           id="use4608" />
        <use
           transform="matrix(0.06172839506172839,0,0,0.06172839506172839,44.382716049382715,0)"
           xlink:href="#ad"
           id="use4610" />
      </g>
      <g
         id="t">
        <use
           transform="matrix(0.06172839506172839,0,0,0.06172839506172839,0,0)"
           xlink:href="#G"
           id="use4613" />
        <use
           transform="matrix(0.06172839506172839,0,0,0.06172839506172839,12.345679012345679,0)"
           xlink:href="#I"
           id="use4615" />
        <use
           transform="matrix(0.06172839506172839,0,0,0.06172839506172839,19.691358024691358,0)"
           xlink:href="#af"
           id="use4617" />
        <use
           transform="matrix(0.06172839506172839,0,0,0.06172839506172839,32.03703703703704,0)"
           xlink:href="#y"
           id="use4619" />
      </g>
      <path
         d="M85-194c31 0 48 13 60 33l-1-100h32l1 261h-30c-2-10 0-23-3-31C134-8 116 4 85 4 32 4 16-35 15-94c0-66 23-100 70-100zm9 24c-40 0-46 34-46 75 0 40 6 74 45 74 42 0 51-32 51-76 0-42-9-74-50-73"
         id="ah" />
      <g
         id="u">
        <use
           transform="matrix(0.06172839506172839,0,0,0.06172839506172839,0,0)"
           xlink:href="#Q"
           id="use4623" />
        <use
           transform="matrix(0.06172839506172839,0,0,0.06172839506172839,4.876543209876543,0)"
           xlink:href="#ah"
           id="use4625" />
        <use
           transform="matrix(0.06172839506172839,0,0,0.06172839506172839,17.22222222222222,0)"
           xlink:href="#ad"
           id="use4627" />
      </g>
      <g
         id="v">
        <use
           transform="matrix(0.06172839506172839,0,0,0.06172839506172839,0,0)"
           xlink:href="#K"
           id="use4630" />
        <use
           transform="matrix(0.06172839506172839,0,0,0.06172839506172839,6.172839506172839,0)"
           xlink:href="#W"
           id="use4632" />
        <use
           transform="matrix(0.06172839506172839,0,0,0.06172839506172839,17.28395061728395,0)"
           xlink:href="#ab"
           id="use4634" />
        <use
           transform="matrix(0.06172839506172839,0,0,0.06172839506172839,29.629629629629626,0)"
           xlink:href="#aa"
           id="use4636" />
      </g>
    </defs>
  </g>
</svg>
